<svg xmlns="http://www.w3.org/2000/svg" width="354.721" height="319.832" viewBox="0 0 354.721 319.832">
  <g id="undraw_location_review_dmxd" opacity="0.5">
    <path id="Path_5699" data-name="Path 5699" d="M250.993,358.859l-48.956-58.241-98.269.9L44.156,359.579l1.2.774h-.43V481.125h205.93V360.353Z" transform="translate(-25.521 -173.747)" fill="#3f3d56"/>
    <path id="Path_5700" data-name="Path 5700" d="M334.615,300.912l-61.16,71.7v108.68H383.388V358.975Z" transform="translate(-158.047 -173.917)" fill="#d19e66"/>
    <rect id="Rectangle_2402" data-name="Rectangle 2402" width="22.451" height="19.844" transform="translate(159.536 247.277)" fill="#fff"/>
    <rect id="Rectangle_2403" data-name="Rectangle 2403" width="22.451" height="19.529" transform="translate(159.536 212.929)" fill="#fff"/>
    <rect id="Rectangle_2404" data-name="Rectangle 2404" width="22.451" height="19.844" transform="translate(59.761 242.011)" fill="#fff"/>
    <rect id="Rectangle_2405" data-name="Rectangle 2405" width="22.451" height="19.529" transform="translate(59.761 207.663)" fill="#fff"/>
    <rect id="Rectangle_2406" data-name="Rectangle 2406" width="354.721" height="0.844" transform="translate(0 307.001)" fill="#3f3d56"/>
    <path id="Path_5701" data-name="Path 5701" d="M704.673,695.253l1.688,8.441-8.441,1.688,1.266-10.551Z" transform="translate(-403.373 -401.588)" fill="#a0616a"/>
    <path id="Path_5702" data-name="Path 5702" d="M760.159,688.941l-2.11,10.551H747.92l4.22-12.661Z" transform="translate(-432.271 -396.964)" fill="#a0616a"/>
    <path id="Path_5703" data-name="Path 5703" d="M915.163,578.818l1.688,11.395-2.11,24.9-1.688,9.285-7.175,30.387s-8.019,0-9.285-3.376l2.11-17.3s1.688-13.927,1.266-15.615-6.753-28.7-6.753-28.7-9.285,42.626-10.551,46.424-2.954,20.258-2.954,20.258-7.175,1.266-7.6,0-.844-31.231-.844-35.873a47.863,47.863,0,0,1,.844-8.019c0-.844-3.325-41.137-3.325-41.137Z" transform="translate(-577.991 -360.275)" fill="#2f2e41"/>
    <path id="Path_5704" data-name="Path 5704" d="M925.532,777.136a8.383,8.383,0,0,0,3.376,0c1.266-.422,0-2.954,0-2.954h4.642s5.064,11.395,7.175,12.239,8.863,10.129.844,10.129a26.2,26.2,0,0,1-13.927-4.22,5.592,5.592,0,0,0-4.642-4.22c-3.8-.422-6.331-5.064-6.331-5.064l5.486-10.129S923.422,777.558,925.532,777.136Z" transform="translate(-605.663 -476.718)" fill="#2f2e41"/>
    <path id="Path_5705" data-name="Path 5705" d="M871.445,777.292s-.844,1.688-1.688.844a11.561,11.561,0,0,1-1.688-2.954s-2.532-1.266-2.954,0-2.11,8.019-2.954,8.863-9.707,9.707-.844,11.395,10.551-2.11,10.551-2.11a1.923,1.923,0,0,1,1.266-2.954c2.532-.844,2.954-3.8,2.954-3.8L874.4,773.916S872.711,778.136,871.445,777.292Z" transform="translate(-571.413 -477.296)" fill="#2f2e41"/>
    <path id="Path_5706" data-name="Path 5706" d="M985.717,518.916l1.266,21.946s5.909,13.927-2.11,13.505-2.954-13.927-2.954-13.927l-7.851-19.586Z" transform="translate(-638.838 -329.915)" fill="#a0616a"/>
    <path id="Path_5707" data-name="Path 5707" d="M843.063,503.916,841.8,525.862s-5.908,13.927,2.11,13.505,2.954-13.927,2.954-13.927l7.851-19.586Z" transform="translate(-561.178 -321.246)" fill="#a0616a"/>
    <circle id="Ellipse_198" data-name="Ellipse 198" cx="10.973" cy="10.973" r="10.973" transform="translate(304.675 113.034)" fill="#a0616a"/>
    <path id="Path_5708" data-name="Path 5708" d="M924.472,375.416s-2.954,11.817,2.954,14.771-18.57,7.175-20.258,0l.844-3.376s3.376-4.22,2.532-8.019Z" transform="translate(-600.173 -246.977)" fill="#a0616a"/>
    <path id="Path_5709" data-name="Path 5709" d="M891.056,405.313s-7.282.68-9.55-4.091c0,0-17.039,1.137-20.837,16.752L867,458.49s-6.753,11.817-5.908,13.083c0,0-4.22,11.817,34.607,12.239l16.881-.844a23.483,23.483,0,0,0-.422-7.175c-.844-3.8-5.486-30.387-5.486-30.387s12.661-19.836,11.395-22.79-3.294-14.6-19.583-19.329C898.483,403.287,898.23,405.735,891.056,405.313Z" transform="translate(-573.297 -261.892)" fill="#e6e6e6"/>
    <path id="Path_5710" data-name="Path 5710" d="M965.174,434.916l5.486,7.175s5.486,29.965,3.8,30.387-11.817,3.8-13.505,2.532-9.285-26.166-9.285-26.166Z" transform="translate(-625.892 -281.366)" fill="#e6e6e6"/>
    <path id="Path_5711" data-name="Path 5711" d="M856.725,429.916l-7.175,4.642S839,464.1,841.954,465.367s19.414.422,19.414.422Z" transform="translate(-562.179 -278.476)" fill="#e6e6e6"/>
    <path id="Path_5712" data-name="Path 5712" d="M924.71,332.583s-3.8-8.235-11.085-6.335-11.4,4.751-11.719,7.6a40.666,40.666,0,0,0,.158,7.126s.792-5.859,5.859-4.592a34.241,34.241,0,0,0,8.885.616,3.88,3.88,0,0,1,4.039,3.928L920.715,350S931.266,343.247,924.71,332.583Z" transform="translate(-597.068 -218.396)" fill="#2f2e41"/>
    <path id="Path_5713" data-name="Path 5713" d="M625.551,247.925H476.494a2.764,2.764,0,0,1-2.76-2.76V176.723a2.764,2.764,0,0,1,2.76-2.76H625.551a2.764,2.764,0,0,1,2.76,2.76v68.442A2.764,2.764,0,0,1,625.551,247.925ZM476.494,175.066a1.658,1.658,0,0,0-1.656,1.656v68.442a1.658,1.658,0,0,0,1.656,1.656H625.551a1.658,1.658,0,0,0,1.656-1.656V176.723a1.658,1.658,0,0,0-1.656-1.656Z" transform="translate(-349.662 -130.544)" fill="#e6e6e6"/>
    <circle id="Ellipse_199" data-name="Ellipse 199" cx="11.244" cy="11.244" r="11.244" transform="translate(137.644 56.419)" fill="#d19e66"/>
    <path id="Path_5714" data-name="Path 5714" d="M591.5,213.649a1.874,1.874,0,1,0,0,3.748h88.346a1.874,1.874,0,0,0,0-3.748Z" transform="translate(-416.644 -153.482)" fill="#e6e6e6"/>
    <path id="Path_5715" data-name="Path 5715" d="M591.5,240.292a1.874,1.874,0,1,0,0,3.748h38.016a1.874,1.874,0,1,0,0-3.748Z" transform="translate(-416.644 -168.88)" fill="#e6e6e6"/>
    <path id="Path_5716" data-name="Path 5716" d="M508.559,282.885c-1.426,0-2.586.841-2.586,1.874s1.16,1.874,2.586,1.874h121.89c1.426,0,2.586-.841,2.586-1.874s-1.16-1.874-2.586-1.874Z" transform="translate(-368.296 -193.498)" fill="#e6e6e6"/>
    <path id="Path_5717" data-name="Path 5717" d="M508.559,309.527c-1.426,0-2.586.841-2.586,1.874s1.16,1.874,2.586,1.874h121.89c1.426,0,2.586-.841,2.586-1.874s-1.16-1.874-2.586-1.874Z" transform="translate(-368.296 -208.896)" fill="#e6e6e6"/>
    <circle id="Ellipse_200" data-name="Ellipse 200" cx="19.997" cy="19.997" r="19.997" transform="translate(229.046 0)" fill="#d19e66"/>
    <path id="Path_5718" data-name="Path 5718" d="M572.974,94.746l-6.253-10.83-6.252-10.83h25.01l-6.252,10.83Z" transform="translate(-323.931 -42.241)" fill="#d19e66"/>
    <circle id="Ellipse_201" data-name="Ellipse 201" cx="7.175" cy="7.175" r="7.175" transform="translate(242.03 12.698)" fill="#fff"/>
    <ellipse id="Ellipse_202" data-name="Ellipse 202" cx="1.688" cy="2.11" rx="1.688" ry="2.11" transform="translate(322.803 121.897)" fill="#a0616a"/>
  </g>
</svg>
