<svg id="bag" xmlns="http://www.w3.org/2000/svg" viewBox="0 0 28.5 27.5">
  <path fill="CurrentColor" id="iconfinder_09.Handbag_290141"
        d="M25.652,28H3.348A2.356,2.356,0,0,1,1,25.636L3.348,11.455A2.526,2.526,0,0,1,6.21,9.091H7.767C8.652,4.985,11.332,2,14.5,2s5.848,2.985,6.733,7.091H22.79a2.526,2.526,0,0,1,2.863,2.364L28,25.636A2.356,2.356,0,0,1,25.652,28ZM14.5,3.182c-2.554,0-4.722,2.469-5.528,5.909H20.029C19.222,5.651,17.055,3.182,14.5,3.182Zm9.978,8.273a1.273,1.273,0,0,0-1.391-1.182h-1.66c.072.577.116,2.792.116,3.4a.587.587,0,1,1-1.174,0c0-.607-.041-2.825-.118-3.4H8.748c-.077.573-.118,2.791-.118,3.4a.587.587,0,1,1-1.174,0c0-.606.044-2.821.116-3.4H5.912a1.273,1.273,0,0,0-1.391,1.182L2.174,25.636a1.178,1.178,0,0,0,1.174,1.182h22.3a1.178,1.178,0,0,0,1.174-1.182Z"
        transform="translate(-0.25 -1.25)" stroke-width="1.5" fill-rule="evenodd"/>
</svg>
