<svg id="basket" xmlns="http://www.w3.org/2000/svg"  viewBox="0 0 20.841 20.833">
    <path fill="CurrentColor" id="Path_5672" data-name="Path 5672"
          d="M7.25,18.667A2.083,2.083,0,1,0,9.333,20.75,2.081,2.081,0,0,0,7.25,18.667ZM1,3.042A1.045,1.045,0,0,0,2.042,4.083H3.083l3.75,7.906L5.427,14.531A2.087,2.087,0,0,0,7.25,17.625H18.708a1.042,1.042,0,0,0,0-2.083H7.25L8.4,13.458h7.76a2.073,2.073,0,0,0,1.823-1.073l3.729-6.76A1.038,1.038,0,0,0,20.8,4.083H5.385l-.7-1.49A1.034,1.034,0,0,0,3.75,2H2.042A1.045,1.045,0,0,0,1,3.042ZM17.667,18.667A2.083,2.083,0,1,0,19.75,20.75,2.081,2.081,0,0,0,17.667,18.667Z"
          transform="translate(-1 -2)" />
</svg>
