<svg id="com-dash" xmlns="http://www.w3.org/2000/svg"  viewBox="0 0 32 28">
  <g id="Path_5698" data-name="Path 5698" fill="#514a4e">
    <path d="M 7.757486820220947 27.74625778198242 C 3.595863103866577 27.61772537231445 0.25 24.1922435760498 0.25 20 L 0.25 10 C 0.25 4.62382984161377 4.62382984161377 0.25 10 0.25 L 20 0.25 C 23.13884925842285 0.25 26.08974075317383 1.472530007362366 28.30908012390137 3.692379951477051 C 30.52799034118652 5.911799907684326 31.75 8.862170219421387 31.75 12 C 31.75 15.13782978057861 30.52799034118652 18.08819961547852 28.30908012390137 20.30761909484863 C 26.08974075317383 22.52746963500977 23.13884925842285 23.75 20 23.75 L 12 23.75 C 9.741787910461426 23.75 7.889275074005127 25.52055168151855 7.757486820220947 27.74625778198242 Z M 10 3.75 C 6.55374002456665 3.75 3.75 6.55374002456665 3.75 10 L 3.75 20 C 3.75 21.32464981079102 4.387139797210693 22.59660911560059 5.454339981079102 23.40250968933105 L 5.654359817504883 23.55355072021484 L 5.804890155792236 23.3531494140625 C 6.512740135192871 22.41078948974609 7.439809799194336 21.62982940673828 8.485859870910645 21.09469032287598 C 9.581469535827637 20.53420066833496 10.7637996673584 20.25 12 20.25 L 20 20.25 C 24.54907035827637 20.25 28.25 16.54907035827637 28.25 12 C 28.25 7.450930118560791 24.54907035827637 3.75 20 3.75 L 10 3.75 Z" stroke="none"/>
    <path d="M 10 0.5 C 4.761680603027344 0.5 0.5 4.761680603027344 0.5 10 L 0.5 20 C 0.5 23.97750091552734 3.612049102783203 27.24175643920898 7.529239654541016 27.48539352416992 C 7.785406112670898 25.24554824829102 9.692703247070313 23.5 12 23.5 L 20 23.5 C 23.07205963134766 23.5 25.96015930175781 22.30348014831543 28.13228034973145 20.130859375 C 30.30398941040039 17.95866012573242 31.5 15.07106018066406 31.5 12 C 31.5 8.928939819335938 30.30398941040039 6.041339874267578 28.13228034973145 3.869140625 C 25.96015930175781 1.69651985168457 23.07205963134766 0.5 20 0.5 L 10 0.5 M 20 20.5 L 12 20.5 C 10.80377006530762 20.5 9.659749984741211 20.77497100830078 8.599720001220703 21.3172607421875 C 7.5872802734375 21.83520889282227 6.689960479736328 22.59112930297852 6.004779815673828 23.50329971313477 L 5.703720092773438 23.90409088134766 L 5.303689956665039 23.60200881958008 C 4.174280166625977 22.7491397857666 3.5 21.4025993347168 3.5 20 L 3.5 10 C 3.5 6.415889739990234 6.415889739990234 3.5 10 3.5 L 20 3.5 C 24.68692016601563 3.5 28.5 7.313079833984375 28.5 12 C 28.5 16.68692016601563 24.68692016601563 20.5 20 20.5 M 10 0 L 20 0 C 26.62899971008301 0 32 5.375 32 12 C 32 18.625 26.62899971008301 24 20 24 L 12 24 C 9.792999267578125 24 8 25.78899955749512 8 28 C 3.586000442504883 28 0 24.41799926757813 0 20 L 0 10 C 0 4.476999282836914 4.476999282836914 0 10 0 Z M 20 20 C 24.41399955749512 20 28 16.41399955749512 28 12 C 28 7.586000442504883 24.41399955749512 4 20 4 L 10 4 C 6.694999694824219 4 4 6.690999984741211 4 10 L 4 20 C 4 21.30500030517578 4.632999420166016 22.4689998626709 5.604999542236328 23.20299911499023 C 7.065999984741211 21.25799942016602 9.391000747680664 20 12 20 L 20 20 Z" stroke="none" fill="#fff"/>
  </g>
  <line id="Line_332" data-name="Line 332" x2="14" transform="translate(8.5 8.5)" fill="none" stroke="#514a4e" stroke-linecap="round" stroke-width="2.5"/>
  <line id="Line_333" data-name="Line 333" x2="14" transform="translate(8.5 14.5)" fill="none" stroke="#514a4e" stroke-linecap="round" stroke-width="2.5"/>
</svg>
