<svg id="comment" xmlns="http://www.w3.org/2000/svg" viewBox="0 0 21.131 19.622">
  <g id="comment" transform="translate(-0.001 1.332)" stroke="none">
    <path fill="CurrentColor" id="Path_5682" data-name="Path 5682" d="M18.227-1.332H2.906A2.922,2.922,0,0,0,0,1.6v9.463A2.922,2.922,0,0,0,2.9,14V18.29L9.01,14h9.217a2.922,2.922,0,0,0,2.905-2.932V1.6a2.922,2.922,0,0,0-2.905-2.932Zm1.667,12.4a1.677,1.677,0,0,1-1.667,1.682H8.622L4.134,15.9V12.746H2.906a1.677,1.677,0,0,1-1.667-1.682V1.6A1.677,1.677,0,0,1,2.906-.082H18.227A1.677,1.677,0,0,1,19.894,1.6Zm0,0" transform="translate(0)"/>
    <path fill="CurrentColor" id="Path_5683" data-name="Path 5683" d="M171.293,131.172H181.2v1.25h-9.911Zm0,0" transform="translate(-165.682 -128.088)"/>
    <path fill="CurrentColor" id="Path_5684" data-name="Path 5684" d="M171.293,211.172H181.2v1.25h-9.911Zm0,0" transform="translate(-165.682 -205.423)"/>
    <path fill="CurrentColor" id="Path_5685" data-name="Path 5685" d="M171.293,291.172H181.2v1.25h-9.911Zm0,0" transform="translate(-165.682 -282.757)"/>
  </g>
</svg>
