<svg xmlns="http://www.w3.org/2000/svg" width="393.928" height="258.431" viewBox="0 0 393.928 258.431">
  <g id="undraw_public_discussion_btnw" transform="translate(0 0)" opacity="0.5">
    <ellipse id="Ellipse_203" data-name="Ellipse 203" cx="196.964" cy="12.363" rx="196.964" ry="12.363" transform="translate(0 233.705)" fill="#e6e6e6"/>
    <path id="Path_5719" data-name="Path 5719" d="M834.454,156.708a1.4,1.4,0,0,0-1.4,1.4v54.9a1.4,1.4,0,0,0,1.4,1.4h64.121a1.4,1.4,0,0,0,1.4-1.4v-54.9a1.4,1.4,0,0,0-1.4-1.4Z" transform="translate(-533.413 -156.708)" fill="#e6e6e6"/>
    <path id="Path_5720" data-name="Path 5720" d="M855.791,231.709a.616.616,0,0,0,0,1.207H902.7a.616.616,0,0,0,0-1.207Z" transform="translate(-545.858 -198.666)" fill="#fff"/>
    <path id="Path_5721" data-name="Path 5721" d="M854.482,247.982a.616.616,0,0,0,0,1.207h46.912a.616.616,0,0,0,0-1.207Z" transform="translate(-545.125 -207.77)" fill="#fff"/>
    <path id="Path_5722" data-name="Path 5722" d="M855.791,264.256a.616.616,0,0,0,0,1.207H902.7a.616.616,0,0,0,0-1.207Z" transform="translate(-545.858 -216.874)" fill="#fff"/>
    <path id="Path_5723" data-name="Path 5723" d="M855.791,177.384a.616.616,0,0,0,0,1.207H902.7a.616.616,0,0,0,0-1.207Z" transform="translate(-545.858 -168.275)" fill="#fff"/>
    <path id="Path_5724" data-name="Path 5724" d="M854.482,193.658a.616.616,0,0,0,0,1.207h46.912a.616.616,0,0,0,0-1.207Z" transform="translate(-545.125 -177.379)" fill="#fff"/>
    <path id="Path_5725" data-name="Path 5725" d="M855.791,209.931a.616.616,0,0,0,0,1.207H902.7a.616.616,0,0,0,0-1.207Z" transform="translate(-545.857 -186.483)" fill="#fff"/>
    <path id="Path_5726" data-name="Path 5726" d="M769.4,207.662a1.4,1.4,0,0,0-1.4,1.4v54.9a1.4,1.4,0,0,0,1.4,1.4h64.121a1.4,1.4,0,0,0,1.4-1.4v-54.9a1.4,1.4,0,0,0-1.4-1.4Z" transform="translate(-497.02 -185.213)" fill="#d19e66"/>
    <path id="Path_5727" data-name="Path 5727" d="M790.738,282.663a.616.616,0,0,0,0,1.207H837.65a.616.616,0,0,0,0-1.207Z" transform="translate(-509.465 -227.171)" fill="#fff"/>
    <path id="Path_5728" data-name="Path 5728" d="M789.429,298.936a.616.616,0,0,0,0,1.207h46.912a.616.616,0,0,0,0-1.207Z" transform="translate(-508.733 -236.275)" fill="#fff"/>
    <path id="Path_5729" data-name="Path 5729" d="M790.738,315.21a.616.616,0,0,0,0,1.207H837.65a.616.616,0,0,0,0-1.207Z" transform="translate(-509.465 -245.379)" fill="#fff"/>
    <path id="Path_5730" data-name="Path 5730" d="M790.738,228.339a.616.616,0,0,0,0,1.207H837.65a.616.616,0,0,0,0-1.207Z" transform="translate(-509.465 -196.781)" fill="#fff"/>
    <path id="Path_5731" data-name="Path 5731" d="M789.429,244.612a.616.616,0,0,0,0,1.207h46.912a.616.616,0,0,0,0-1.207Z" transform="translate(-508.733 -205.884)" fill="#fff"/>
    <path id="Path_5732" data-name="Path 5732" d="M790.738,260.886a.616.616,0,0,0,0,1.207H837.65a.616.616,0,0,0,0-1.207Z" transform="translate(-509.465 -214.988)" fill="#fff"/>
    <path id="Path_5733" data-name="Path 5733" d="M823.848,514.931l.336,6.386,7.057-.672-.672-6.385Z" transform="translate(-460.886 -287.692)" fill="#fbbebe"/>
    <path id="Path_5734" data-name="Path 5734" d="M762.058,498.148l.336,6.386,7.058-.672-.672-6.386Z" transform="translate(-426.318 -278.303)" fill="#fbbebe"/>
    <path id="Path_5735" data-name="Path 5735" d="M944.74,475.3,919.2,479.669l-1.681,46.379L910.8,555.623l10.755,4.705,10.419-29.239,3.7-25.878,2.689,25.878.336,32.6,16.468-1.008-3.938-63.839a59.391,59.391,0,0,0-6.481-23.543Z" transform="translate(-576.904 -334.938)" fill="#2f2e41"/>
    <path id="Path_5736" data-name="Path 5736" d="M974.376,679.225s-2.353-2.689-2.353-1.68-1.344,10.755-1.344,10.755,9.074,2.689,9.074,4.369,13.107,4.369,12.771,1.008-11.763-16.132-11.763-16.132S976.056,676.873,974.376,679.225Z" transform="translate(-610.405 -447.953)" fill="#2f2e41"/>
    <path id="Path_5737" data-name="Path 5737" d="M908.432,661.446s-.716-3.5-1.215-2.624-6.484,8.685-6.484,8.685,6.56,6.822,5.729,8.283,9.235,10.276,10.6,7.188-2.253-19.838-2.253-19.838S911.056,660.231,908.432,661.446Z" transform="translate(-571.276 -437.527)" fill="#2f2e41"/>
    <path id="Path_5738" data-name="Path 5738" d="M764.106,209.848l18.606,1.779,6.2-16.9L771.1,190.435Z" transform="translate(-427.464 -106.535)" fill="#2f2e41"/>
    <circle id="Ellipse_204" data-name="Ellipse 204" cx="9.41" cy="9.41" r="9.41" transform="translate(342.461 81.043)" fill="#fbbebe"/>
    <path id="Path_5739" data-name="Path 5739" d="M931.822,374.987s0,6.386-5.041,9.074,12.1,5.713,12.1,5.713l1.68-5.713s-5.041-2.353-.672-7.73Z" transform="translate(-585.328 -278.82)" fill="#fbbebe"/>
    <path id="Path_5740" data-name="Path 5740" d="M928.691,390.916s-6.155,3.813-11.312.394l-2.132-.394-6.386,1.344-3.025,11.427,11.427,28.567s19.829,3.361,23.862-4.033l-2.353-30.247-6.386-7.73Z" transform="translate(-574.131 -287.355)" fill="#575a89"/>
    <path id="Path_5741" data-name="Path 5741" d="M806.1,198.7l11.09-15.46-1.008-1.68-14.452-7.394v-4.705l22.518,6.049,1.523,2.414L812.48,206.762Z" transform="translate(-448.51 -94.799)" fill="#575a89"/>
    <path id="Path_5742" data-name="Path 5742" d="M725.875,217.111l-.672-.336-16.8-.672,12.771-11.091-4.033-5.041L697.98,214.423v3.361L725.2,229.21Z" transform="translate(-390.471 -111.87)" fill="#575a89"/>
    <path id="Path_5743" data-name="Path 5743" d="M894.013,352.478l2.353-1.344s5.041-6.722,7.058-4.033-4.705,7.73-4.705,7.73l-3.7,1.344Z" transform="translate(-567.516 -262.864)" fill="#fbbebe"/>
    <path id="Path_5744" data-name="Path 5744" d="M939.733,325.893l-3.7-2.016s-11.091,1.008-9.746,3.361,9.074.336,9.074.336l4.369,1.344Z" transform="translate(-585.509 -250.228)" fill="#fbbebe"/>
    <path id="Path_5745" data-name="Path 5745" d="M923.538,338.516s-4.32,1.44-4.539,7.126a10.089,10.089,0,0,0,.3,2.7c.243,1.031.4,3.249-1.485,6.147a60.875,60.875,0,0,0-3.454,5.941l-.014.027,4.744.593,1.009-7.864a39.16,39.16,0,0,1,3.109-11.04l.033-.073s2.076,3.855,6.227,3.855l-1.483-1.483s6.523,2.669,8.9,2.669c0,0,1.779,1.186,0,2.965s-5.337,5.93-3.262,9.192.3,4.151.3,4.151l3.262-1.779,1.483-.89v1.186l7.709-.89s2.076-.3-2.372-5.337a5.284,5.284,0,0,1-.661-3.646,8.516,8.516,0,0,0,.324-3.983C942.664,342.527,938.755,331.476,923.538,338.516Z" transform="translate(-578.891 -257.145)" fill="#2f2e41"/>
    <path id="Path_5746" data-name="Path 5746" d="M320.177,353.864a.878.878,0,0,0-.877.877v66.974a.877.877,0,0,0,.877.877H473.059a.877.877,0,0,0,.877-.877V354.74a.878.878,0,0,0-.877-.877Z" transform="translate(-246.004 -267.003)" fill="#e6e6e6"/>
    <path id="Path_5747" data-name="Path 5747" d="M478.419,381.182H366.912a1.052,1.052,0,0,1,0-2.1H478.419a1.052,1.052,0,0,1,0,2.1Z" transform="translate(-272.051 -281.109)" fill="#fff"/>
    <path id="Path_5748" data-name="Path 5748" d="M478.419,400.284H366.912a1.052,1.052,0,0,1,0-2.1H478.419a1.052,1.052,0,1,1,0,2.1Z" transform="translate(-272.051 -291.795)" fill="#fff"/>
    <path id="Path_5749" data-name="Path 5749" d="M478.419,419.385H366.912a1.052,1.052,0,1,1,0-2.1H478.419a1.052,1.052,0,0,1,0,2.1Z" transform="translate(-272.051 -302.481)" fill="#fff"/>
    <path id="Path_5750" data-name="Path 5750" d="M478.419,438.342H366.912a1.052,1.052,0,1,1,0-2.1H478.419a1.052,1.052,0,0,1,0,2.1Z" transform="translate(-272.051 -313.086)" fill="#fff"/>
    <path id="Path_5751" data-name="Path 5751" d="M478.419,457.444H366.912a1.052,1.052,0,1,1,0-2.1H478.419a1.052,1.052,0,0,1,0,2.1Z" transform="translate(-272.051 -323.772)" fill="#fff"/>
    <path id="Path_5752" data-name="Path 5752" d="M556.719,476.01a.3.3,0,0,0-.3.3v7.963a.3.3,0,0,0,.3.3h27.854a.3.3,0,0,0,.3-.3V476.31a.3.3,0,0,0-.3-.3Z" transform="translate(-378.655 -335.335)" fill="#fff"/>
    <path id="Path_5753" data-name="Path 5753" d="M200.859,505.751s-2.3,27.652-2.794,33.577a42.139,42.139,0,0,1-2.469,10.863,10.214,10.214,0,0,0-.988,3.95v25.183a1.468,1.468,0,0,0-1.481,1.975c.494,1.975.988,5.432.988,5.432h7.407a1.529,1.529,0,0,1,.988-1.975c1.481-.494,0-4.444,0-4.444l7.9-29.627L222.261,526s6.913,22.22,8.394,24.689c0,0,5.432,27.652,6.419,30.121s1.481,2.469.988,3.456a2.2,2.2,0,0,0,0,2.469c.494.494,9.876,0,9.876,0l-2.469-35.058L241.024,509.7l-22.714-6.913Z" transform="translate(-175.375 -350.316)" fill="#2f2e41"/>
    <path id="Path_5754" data-name="Path 5754" d="M191.786,678.5s-2.469-8.888-6.419-1.975-3.95,9.382-3.95,9.382-6.419,9.382,2.469,8.394,6.913-5.431,6.913-5.431,3.456-1.975,3.456-3.457S191.786,678.5,191.786,678.5Z" transform="translate(-167.614 -446.039)" fill="#2f2e41"/>
    <path id="Path_5755" data-name="Path 5755" d="M295.447,676.262s2.469-8.888,6.419-1.975,3.95,9.382,3.95,9.382,6.419,9.382-2.469,8.394-6.913-5.432-6.913-5.432-3.456-1.975-3.456-3.456S295.447,676.262,295.447,676.262Z" transform="translate(-231.279 -444.785)" fill="#2f2e41"/>
    <path id="Path_5756" data-name="Path 5756" d="M242.67,358.209s.988,6.419-1.975,7.9,6.419,6.913,8.888,6.913,6.913-4.938,6.913-4.938-2.469-7.407-1.975-8.888Z" transform="translate(-201.71 -269.434)" fill="#ffb9b9"/>
    <circle id="Ellipse_205" data-name="Ellipse 205" cx="10.369" cy="10.369" r="10.369" transform="translate(36.023 72.974)" fill="#ffb9b9"/>
    <path id="Path_5757" data-name="Path 5757" d="M251.29,383.415l-12.344-7.479s-7.023,7.973-14.622-.915l-13.03,3.456,1.975,33.577s-2.963,13.332-1.975,15.8-2.469,3.456-1.481,3.95,0,3.95,0,3.95,19.257,9.876,40.49,2.469l-1.975-6.419a5.181,5.181,0,0,0-.988-4.938,4.369,4.369,0,0,0-.494-5.432s.988-4.444-1.481-6.419l-.494-6.913,1.481-3.456Z" transform="translate(-184.653 -278.839)" fill="#cfcce0"/>
    <path id="Path_5758" data-name="Path 5758" d="M239.049,324.665s-1.236,2.675,3.709,1.605c0,0,1.854,1.07,1.854-.535,0,0,2.472,2.675,3.091,1.07s1.854.535,1.854.535l1.236-2.675,1.236,1.605h4.327s1.236-10.7-13.6-9.631-7.537,18.026-7.537,18.026.119-3.044,1.356-1.438S239.049,324.665,239.049,324.665Z" transform="translate(-197.963 -246.136)" fill="#2f2e41"/>
    <path id="Path_5759" data-name="Path 5759" d="M302.5,438.9l.494,10.369s1.975,19.257-1.975,27.652v4.444s-.988,11.357-5.925,10.863,1.481-16.295,1.481-16.295l-.988-21.726-.988-12.345Z" transform="translate(-231.415 -314.578)" fill="#ffb9b9"/>
    <path id="Path_5760" data-name="Path 5760" d="M286.214,394.179l4.926-.8a24.048,24.048,0,0,1,6.925,12.651c1.481,7.9,1.975,9.382,1.975,9.382l-11.851,2.963L281.77,406.03Z" transform="translate(-225.008 -289.109)" fill="#cfcce0"/>
    <path id="Path_5761" data-name="Path 5761" d="M243.815,401.835a.878.878,0,0,0-.877.877v66.974a.877.877,0,0,0,.877.877H396.7a.877.877,0,0,0,.877-.877V402.711a.877.877,0,0,0-.877-.877Z" transform="translate(-203.285 -293.839)" fill="#d19e66"/>
    <path id="Path_5762" data-name="Path 5762" d="M402.056,429.153H290.55a1.052,1.052,0,0,1,0-2.1H402.056a1.052,1.052,0,1,1,0,2.1Z" transform="translate(-229.332 -307.945)" fill="#fff"/>
    <path id="Path_5763" data-name="Path 5763" d="M402.056,448.255H290.55a1.052,1.052,0,0,1,0-2.1H402.056a1.052,1.052,0,1,1,0,2.1Z" transform="translate(-229.332 -318.632)" fill="#fff"/>
    <path id="Path_5764" data-name="Path 5764" d="M402.056,467.357H290.55a1.052,1.052,0,0,1,0-2.1H402.056a1.052,1.052,0,0,1,0,2.1Z" transform="translate(-229.332 -329.318)" fill="#fff"/>
    <path id="Path_5765" data-name="Path 5765" d="M402.056,486.314H290.55a1.052,1.052,0,0,1,0-2.1H402.056a1.052,1.052,0,0,1,0,2.1Z" transform="translate(-229.332 -339.923)" fill="#fff"/>
    <path id="Path_5766" data-name="Path 5766" d="M402.056,505.416H290.55a1.052,1.052,0,0,1,0-2.1H402.056a1.052,1.052,0,0,1,0,2.1Z" transform="translate(-229.332 -350.609)" fill="#fff"/>
    <path id="Path_5767" data-name="Path 5767" d="M480.357,523.982a.3.3,0,0,0-.3.3v7.963a.3.3,0,0,0,.3.3h27.854a.3.3,0,0,0,.3-.3v-7.963a.3.3,0,0,0-.3-.3Z" transform="translate(-335.936 -362.172)" fill="#fff"/>
    <path id="Path_5768" data-name="Path 5768" d="M194.417,409.69s-4.444,18.764.988,18.764,18.27-21.233,18.27-21.233,13.332-6.913,7.9-9.382-12.344,3.95-12.344,3.95l-7.977,11.074-.418-5.643Z" transform="translate(-175.183 -291.288)" fill="#ffb9b9"/>
    <path id="Path_5769" data-name="Path 5769" d="M204.452,385.829l-2.963-2.963s-5.925,3.456-6.419,6.913-2.963,14.32-2.963,14.32l9.135.741,2.963-4.444Z" transform="translate(-174.848 -283.228)" fill="#cfcce0"/>
  </g>
</svg>
