<svg id="diamond" xmlns="http://www.w3.org/2000/svg" viewBox="0 0 54.87 74">
  <g id="Group_7150" data-name="Group 7150" transform="translate(-16.541)">
    <path fill="CurrentColor" id="Path_5677" data-name="Path 5677" d="M47.494,19.358,57.6,8.978a1.046,1.046,0,0,0,.075-1.347L51.9.381A1.045,1.045,0,0,0,51.105,0H36.846a1.045,1.045,0,0,0-.79.381l-5.781,7.25a1.046,1.046,0,0,0,.076,1.346L40.458,19.358a27.434,27.434,0,1,0,7.037,0ZM36.923,2.535,41.56,7.25H33.166ZM54.786,7.25h-8.4l4.639-4.715ZM46.673,9.273l-2.7,7.776-2.7-7.776Zm2.139,0h5.675l-8.813,9.051ZM43.976,6.821l-4.716-4.8h9.432ZM39.137,9.276l3.14,9.049L33.462,9.273ZM43.976,71.97A25.411,25.411,0,1,1,69.387,46.559,25.411,25.411,0,0,1,43.976,71.97Z" />
    <path fill="CurrentColor" id="Path_5678" data-name="Path 5678" d="M47.242,40.822A22.961,22.961,0,1,0,70.2,63.783,22.96,22.96,0,0,0,47.242,40.822Zm0,43.9A20.937,20.937,0,1,1,68.18,63.782,20.937,20.937,0,0,1,47.242,84.72Z" transform="translate(-3.266 -17.224)" />
  </g>
</svg>
