<svg id="factor"  xmlns="http://www.w3.org/2000/svg"  viewBox="0 0 33.296 31">
  <path id="printer-text" d="M29.556,30.556h2.3A3.442,3.442,0,0,0,35.3,27.112V16.777a3.441,3.441,0,0,0-3.438-3.444h-2.3V5.3A2.292,2.292,0,0,0,27.262,3H10.034A2.289,2.289,0,0,0,7.741,5.3v8.037h-2.3A3.442,3.442,0,0,0,2,16.777V27.112a3.441,3.441,0,0,0,3.438,3.444h2.3V31.7A2.292,2.292,0,0,0,10.034,34H27.262a2.289,2.289,0,0,0,2.293-2.3V30.556ZM7.741,29.407H5.453a2.3,2.3,0,0,1-2.3-2.3V16.781a2.3,2.3,0,0,1,2.3-2.3H31.843a2.3,2.3,0,0,1,2.3,2.3V27.108a2.3,2.3,0,0,1-2.3,2.3H29.556V22.519H7.741v6.889Zm2.3-25.259A1.151,1.151,0,0,0,8.889,5.293v8.04H28.407V5.293a1.152,1.152,0,0,0-1.148-1.145ZM8.889,23.667v8.04a1.152,1.152,0,0,0,1.148,1.145H27.259a1.151,1.151,0,0,0,1.148-1.145v-8.04Zm19.519-4.593a1.148,1.148,0,1,0-1.148-1.148,1.148,1.148,0,0,0,1.148,1.148Zm-18.37,6.889v1.148H27.259V25.963Zm0,3.444v1.148H27.259V29.407Z" transform="translate(-2 -3)" fill="#fff" fill-rule="evenodd"/>
</svg>
