<svg xmlns="http://www.w3.org/2000/svg" xmlns:xlink="http://www.w3.org/1999/xlink" width="367.31" height="282.045" viewBox="0 0 367.31 282.045">
  <defs>
    <linearGradient id="linear-gradient" x1="0.5" y1="1" x2="0.5" gradientUnits="objectBoundingBox">
      <stop offset="0" stop-color="gray" stop-opacity="0.251"/>
      <stop offset="0.54" stop-color="gray" stop-opacity="0.122"/>
      <stop offset="1" stop-color="gray" stop-opacity="0.102"/>
    </linearGradient>
    <linearGradient id="linear-gradient-2" x1="0.5" x2="0.5" xlink:href="#linear-gradient"/>
  </defs>
  <g id="undraw_add_to_cart_vkjp" transform="translate(0.01 0.019)">
    <path id="Path_5816" data-name="Path 5816" d="M471.869,213.727c-.329.24-.632.474-.954.7a32.178,32.178,0,0,1-3.728,2.274c-6.772,3.57-15.121,5.314-23.252,6.5-18.237,2.659-36.856,3.176-55.4,3.682-50.094,1.376-100.31,2.748-150.283-.421-19.744-1.25-39.923-3.343-57.814-9.76q-3.847-1.376-7.542-3.034a61.944,61.944,0,0,1-13.755-8.227,29.95,29.95,0,0,1-8.589-10.55c-3.781-8.306-1.78-17.635,2.537-25.776a80.1,80.1,0,0,1,6.052-9.467c3.333-4.584,7.009-9.036,10.362-13.617,11.932-16.282,19.718-36.882,8.7-53.582-3.166-4.8-7.74-9.01-10.32-14.018C164.6,72.023,164.854,64.909,165.9,58q.2-1.316.431-2.606c1.787-10.247,5.15-21.287,15.519-27.685,10.77-6.647,26.066-6.312,39.432-3.949,20.787,3.712,39.962,11.438,59.341,18.415s39.653,13.35,60.95,14.035c18.806.605,40.742-3.926,53.224-15.7,12.123-11.438,34.911-12.31,51.335-5.4C457.407,39.847,465.818,48.39,469.365,58a29.878,29.878,0,0,1,1.543,5.963,27.5,27.5,0,0,1,.276,5.624c-.049.928-.145,1.846-.276,2.754-2.744,18.961-22.5,33.917-34.506,50.854-5.867,8.273-10.01,18.211-5.976,27.132,6.154,13.594,27.553,18.428,40.475,28.543a30.407,30.407,0,0,1,6.351,6.516C483.522,194.388,481.208,206.547,471.869,213.727Z" transform="translate(-113.467 -21.978)" fill="#6c63ff" opacity="0.1"/>
    <g id="flowers" transform="translate(-0.01 -0.019)">
      <path id="Path_5817" data-name="Path 5817" d="M160.095,214.241s-15.137-26.826-37.948-34.552A46.657,46.657,0,0,1,98.506,162,78.319,78.319,0,0,1,91.53,149.46" transform="translate(-75.195 -107.333)" fill="none" stroke="#535461" stroke-miterlimit="10" stroke-width="2"/>
      <path id="Path_5818" data-name="Path 5818" d="M43.881,111.431c2.6,2.511,14.7,5.143,14.7,5.143s-2.962-12.018-5.568-14.542a6.558,6.558,0,1,0-9.135,9.412Z" transform="translate(-41.89 -74.27)" fill="#6c63ff"/>
      <path id="Path_5819" data-name="Path 5819" d="M57.976,173.974c3.551.7,15.137-3.682,15.137-3.682s-9.033-8.477-12.587-9.181a6.558,6.558,0,1,0-2.551,12.865Z" transform="translate(-49.137 -115.065)" fill="#6c63ff"/>
      <path id="Path_5820" data-name="Path 5820" d="M126.326,246.13c3.422-1.185,11.188-10.816,11.188-10.816s-12.07-2.761-15.489-1.576A6.558,6.558,0,1,0,126.3,246.13Z" transform="translate(-92.56 -163.679)" fill="#6c63ff"/>
      <path id="Path_5821" data-name="Path 5821" d="M198.448,286.7c3.574-.592,12.867-8.77,12.867-8.77s-11.429-4.762-15-4.173a6.559,6.559,0,1,0,2.136,12.942Z" transform="translate(-141.812 -190.694)" fill="#6c63ff"/>
      <path id="Path_5822" data-name="Path 5822" d="M118.65,147.072c0,3.62-6.548,14.127-6.548,14.127s-6.562-10.5-6.565-14.12a6.558,6.558,0,1,1,13.113,0Z" transform="translate(-84.591 -101.236)" fill="#6c63ff"/>
      <path id="Path_5823" data-name="Path 5823" d="M200.072,193.121c-1.083,3.455-10.478,11.517-10.478,11.517s-3.12-11.995-2.05-15.466a6.558,6.558,0,0,1,12.5,3.919Z" transform="translate(-139.464 -131.072)" fill="#6c63ff"/>
      <path id="Path_5824" data-name="Path 5824" d="M271.366,253.4c-.48,3.59-8.378,13.123-8.378,13.123s-5.1-11.28-4.607-14.871a6.558,6.558,0,1,1,13,1.747Z" transform="translate(-187.118 -172.08)" fill="#6c63ff"/>
      <path id="Path_5825" data-name="Path 5825" d="M43.881,111.431c2.6,2.511,14.7,5.143,14.7,5.143s-2.962-12.018-5.568-14.542a6.558,6.558,0,1,0-9.135,9.412Z" transform="translate(-41.89 -74.27)" fill="#d19e66" opacity="0.78"/>
      <path id="Path_5826" data-name="Path 5826" d="M57.976,173.974c3.551.7,15.137-3.682,15.137-3.682s-9.033-8.477-12.587-9.181a6.558,6.558,0,1,0-2.551,12.865Z" transform="translate(-49.137 -115.065)" fill="#d19e66" opacity="0.78"/>
      <path id="Path_5827" data-name="Path 5827" d="M126.326,246.13c3.422-1.185,11.188-10.816,11.188-10.816s-12.07-2.761-15.489-1.576A6.558,6.558,0,1,0,126.3,246.13Z" transform="translate(-92.56 -163.679)" fill="#d19e66" opacity="0.78"/>
      <path id="Path_5828" data-name="Path 5828" d="M198.448,286.7c3.574-.592,12.867-8.77,12.867-8.77s-11.429-4.762-15-4.173a6.559,6.559,0,1,0,2.136,12.942Z" transform="translate(-141.812 -190.694)" opacity="0.25"/>
      <path id="Path_5829" data-name="Path 5829" d="M118.65,147.072c0,3.62-6.548,14.127-6.548,14.127s-6.562-10.5-6.565-14.12a6.558,6.558,0,1,1,13.113,0Z" transform="translate(-84.591 -101.236)" fill="#d19e66" opacity="0.78"/>
      <path id="Path_5830" data-name="Path 5830" d="M200.072,193.121c-1.083,3.455-10.478,11.517-10.478,11.517s-3.12-11.995-2.05-15.466a6.558,6.558,0,0,1,12.5,3.919Z" transform="translate(-139.464 -131.072)" opacity="0.25"/>
      <path id="Path_5831" data-name="Path 5831" d="M271.366,253.4c-.48,3.59-8.378,13.123-8.378,13.123s-5.1-11.28-4.607-14.871a6.558,6.558,0,1,1,13,1.747Z" transform="translate(-187.118 -172.08)" opacity="0.25"/>
      <path id="Path_5832" data-name="Path 5832" d="M222.968,167.286s-2.962-30.663-20.692-46.971A46.642,46.642,0,0,1,187.83,94.568a78.366,78.366,0,0,1-1.29-14.3" transform="translate(-138.94 -60.911)" fill="none" stroke="#535461" stroke-miterlimit="10" stroke-width="2"/>
      <path id="Path_5833" data-name="Path 5833" d="M151.8,30.457c1.356,3.36,11.363,10.649,11.363,10.649s2.155-12.192.8-15.552a6.563,6.563,0,0,0-12.176,4.9Z" transform="translate(-115.304 -21.441)" fill="#d19e66"/>
      <path id="Path_5834" data-name="Path 5834" d="M139.333,93.375c2.962,2.083,15.325,2.764,15.325,2.764S149.864,84.733,146.9,82.65a6.563,6.563,0,0,0-7.569,10.724Z" transform="translate(-105.403 -61.702)" fill="#d19e66"/>
      <path id="Path_5835" data-name="Path 5835" d="M172.764,187.052c3.62.306,14.624-5.351,14.624-5.351s-9.915-7.414-13.525-7.717a6.558,6.558,0,1,0-1.1,13.067Z" transform="translate(-125.568 -123.762)" fill="#d19e66"/>
      <path id="Path_5836" data-name="Path 5836" d="M222.136,253.294c3.508.908,15.318-2.8,15.318-2.8s-8.52-8.984-12.024-9.892a6.558,6.558,0,1,0-3.291,12.7Z" transform="translate(-159.528 -168.338)" fill="#6c63ff"/>
      <path id="Path_5837" data-name="Path 5837" d="M205.558,93.641c-1.464,3.31-11.712,10.257-11.712,10.257s-1.744-12.255-.28-15.568a6.558,6.558,0,1,1,11.992,5.312Z" transform="translate(-143.262 -63.699)" fill="#d19e66"/>
      <path id="Path_5838" data-name="Path 5838" d="M255.955,167.924c-2.389,2.721-14.245,6.285-14.245,6.285s2-12.215,4.393-14.936a6.556,6.556,0,1,1,9.852,8.651Z" transform="translate(-175.955 -112.42)" fill="#6c63ff"/>
      <path id="Path_5839" data-name="Path 5839" d="M300.537,252.419c-1.9,3.087-12.979,8.6-12.979,8.6s-.092-12.38,1.8-15.466a6.563,6.563,0,0,1,11.188,6.864Z" transform="translate(-206.716 -169.704)" fill="#6c63ff"/>
    </g>
    <ellipse id="Ellipse_212" data-name="Ellipse 212" cx="36.701" cy="4.778" rx="36.701" ry="4.778" transform="translate(97.605 270.699)" fill="#6c63ff" opacity="0.1"/>
    <g id="floor_flowers" data-name="floor flowers" transform="translate(48.089 253.857)">
      <ellipse id="Ellipse_213" data-name="Ellipse 213" cx="11.149" cy="1.909" rx="11.149" ry="1.909" transform="translate(0.936 19.343)" fill="#6c63ff" opacity="0.1"/>
      <path id="Path_5840" data-name="Path 5840" d="M221.986,792.94s1.807,2.366-.836,5.923-4.821,6.581-3.949,8.809c0,0,3.985-6.631,7.24-6.723S225.56,796.928,221.986,792.94Z" transform="translate(-207.48 -792.94)" fill="#20d29b"/>
      <path id="Path_5841" data-name="Path 5841" d="M222.21,792.94a2.905,2.905,0,0,1,.369.744c3.166,3.718,4.854,7.19,1.81,7.276-2.833.082-6.236,5.15-7.049,6.43a3.033,3.033,0,0,0,.1.293s3.985-6.631,7.24-6.723S225.784,796.928,222.21,792.94Z" transform="translate(-207.704 -792.94)" opacity="0.1"/>
      <path id="Path_5842" data-name="Path 5842" d="M241.5,801c0,.833-.092,1.507-.207,1.507s-.211-.658-.211-1.507.118-.441.234-.441S241.5,800.169,241.5,801Z" transform="translate(-223.632 -797.987)" fill="#ffd037"/>
      <path id="Path_5843" data-name="Path 5843" d="M242.947,803.953c-.731.4-1.369.638-1.425.536s.494-.507,1.224-.9.441-.109.5,0S243.677,803.555,242.947,803.953Z" transform="translate(-223.926 -799.945)" fill="#ffd037"/>
      <path id="Path_5844" data-name="Path 5844" d="M194.844,792.94s-1.807,2.366.836,5.923,4.821,6.581,3.949,8.809c0,0-3.985-6.631-7.24-6.723S191.276,796.928,194.844,792.94Z" transform="translate(-189.887 -792.94)" fill="#20d29b"/>
      <path id="Path_5845" data-name="Path 5845" d="M194.829,792.94a2.905,2.905,0,0,0-.369.744c-3.166,3.718-4.854,7.19-1.81,7.276,2.837.082,6.236,5.15,7.049,6.43a2.338,2.338,0,0,1-.1.293s-3.985-6.631-7.24-6.723S191.262,796.928,194.829,792.94Z" transform="translate(-189.872 -792.94)" opacity="0.1"/>
      <path id="Path_5846" data-name="Path 5846" d="M192.91,801c0,.833.092,1.507.207,1.507s.211-.658.211-1.507-.118-.441-.234-.441S192.91,800.169,192.91,801Z" transform="translate(-191.313 -797.987)" fill="#ffd037"/>
      <path id="Path_5847" data-name="Path 5847" d="M188.5,803.953c.731.4,1.366.638,1.422.536s-.494-.507-1.224-.9-.441-.109-.5,0S187.772,803.555,188.5,803.953Z" transform="translate(-188.057 -799.945)" fill="#ffd037"/>
      <path id="Path_5848" data-name="Path 5848" d="M194.66,831.229s5.055-.158,6.581-1.241,7.773-2.382,8.151-.642,7.595,8.651,1.889,8.7-13.258-.888-14.779-1.813S194.66,831.229,194.66,831.229Z" transform="translate(-192.487 -816.796)" fill="#a8a8a8"/>
      <path id="Path_5849" data-name="Path 5849" d="M211.38,843c-5.706.046-13.258-.888-14.778-1.813-1.158-.707-1.619-3.238-1.774-4.4h-.168s.329,4.074,1.839,5,9.072,1.859,14.778,1.813c1.645,0,2.218-.6,2.185-1.468C213.236,842.66,212.607,842.986,211.38,843Z" transform="translate(-192.487 -822.354)" opacity="0.2"/>
      <path id="Path_5850" data-name="Path 5850" d="M682.306,836.173s-13.913-.839-12.271,8.911a2.372,2.372,0,0,0,1.234,2.5s.026-.721,1.428-.477a6.371,6.371,0,0,0,1.51.072,3.126,3.126,0,0,0,1.849-.763h0s3.909-1.612,5.43-8.006c0,0,1.125-1.4,1.083-1.754l-2.349.987a4.211,4.211,0,0,1,.171,3.1s-.076-3.041-.526-2.962c-.092,0-1.221.586-1.221.586s1.382,2.962.329,5.094c0,0,.395-3.62-.77-4.88l-1.645.964s1.612,3.047.52,5.535c0,0,.28-3.814-.865-5.3l-1.5,1.168s1.514,3,.589,5.068c0,0-.118-4.439-.915-4.775a8.618,8.618,0,0,0-1.51,1.645s1.037,2.178.395,3.33c0,0-.395-2.962-.721-2.962a9.777,9.777,0,0,0-1.441,3.291,7.165,7.165,0,0,1,1.125-3.491,3.929,3.929,0,0,0-2,1.037s.2-1.385,2.3-1.507a9.014,9.014,0,0,1,1.369-1.576,8.57,8.57,0,0,0-3.383.388s1.122-1.316,3.768-.714l1.477-1.2a12.14,12.14,0,0,0-3.949.039s1.356-1.158,4.347-.329l1.612-.961a14.686,14.686,0,0,0-3.774-.329s1.487-.8,4.245.066l1.152-.517s-1.734-.329-2.241-.392-.533-.194-.533-.194a6.009,6.009,0,0,1,3.255.362A14.645,14.645,0,0,0,682.306,836.173Z" transform="translate(-511.341 -821.934)" fill="#20d29b"/>
      <ellipse id="Ellipse_214" data-name="Ellipse 214" cx="9.846" cy="1.665" rx="9.846" ry="1.665" transform="translate(151.537 24.838)" fill="#6c63ff" opacity="0.1"/>
      <path id="Path_5851" data-name="Path 5851" d="M619.283,837.769s-7.845-.474-6.911,5.025a1.343,1.343,0,0,0,.7,1.412s0-.408.806-.27a3.842,3.842,0,0,0,.849.043,1.8,1.8,0,0,0,1.043-.431h0s2.2-.912,3.064-4.515c0,0,.632-.786.609-.987l-1.316.563a2.386,2.386,0,0,1,.1,1.751s-.043-1.714-.3-1.675c-.053,0-.688.329-.688.329a3.9,3.9,0,0,1,.191,2.873s.22-2.05-.434-2.754l-.931.546a4.119,4.119,0,0,1,.293,3.12s.158-2.152-.49-2.988l-.842.658a4.021,4.021,0,0,1,.329,2.856s-.069-2.5-.517-2.692a5.145,5.145,0,0,0-.852.918s.586,1.231.224,1.879c0,0-.224-1.668-.4-1.675a5.528,5.528,0,0,0-.813,1.863,4,4,0,0,1,.632-1.974,2.211,2.211,0,0,0-1.125.582s.115-.783,1.316-.849a4.983,4.983,0,0,1,.77-.888,4.822,4.822,0,0,0-1.909.217,2.143,2.143,0,0,1,2.126-.4l.833-.681a6.858,6.858,0,0,0-2.225.023,2.687,2.687,0,0,1,2.452-.178l.9-.54a8.136,8.136,0,0,0-2.126-.184,3.272,3.272,0,0,1,2.392.036l.658-.29s-.987-.194-1.26-.224-.3-.109-.3-.109a3.4,3.4,0,0,1,1.836.2A7.746,7.746,0,0,0,619.283,837.769Z" transform="translate(-472.691 -823.01)" fill="#20d29b"/>
      <ellipse id="Ellipse_215" data-name="Ellipse 215" cx="5.551" cy="0.938" rx="5.551" ry="0.938" transform="translate(135.637 20.738)" fill="#6c63ff" opacity="0.1"/>
      <path id="Path_5852" data-name="Path 5852" d="M661.685,802.355s-9.467-.573-8.352,6.065a1.619,1.619,0,0,0,.842,1.7s0-.49.971-.329a4.67,4.67,0,0,0,1.027.049,2.169,2.169,0,0,0,1.26-.52h0s2.662-1.1,3.7-5.453c0,0,.767-.948.737-1.191l-1.6.681a2.877,2.877,0,0,1,.118,2.113s-.053-2.07-.362-2.02c-.059,0-.829.4-.829.4s.941,2.011.23,3.468c0,0,.27-2.475-.523-3.324l-1.125.658a4.968,4.968,0,0,1,.355,3.768s.191-2.6-.592-3.62l-1.02.793s1.033,2.044.4,3.449c0,0-.082-3.021-.625-3.251a6.2,6.2,0,0,0-1.027,1.109s.708,1.484.267,2.267c0,0-.267-2.011-.487-2.021a6.606,6.606,0,0,0-.987,2.248,4.841,4.841,0,0,1,.763-2.376,2.675,2.675,0,0,0-1.359.7s.138-.944,1.58-1.027a6.188,6.188,0,0,1,.931-1.073,5.861,5.861,0,0,0-2.3.267,2.582,2.582,0,0,1,2.567-.487l1.007-.819a8.278,8.278,0,0,0-2.689.026s.921-.786,2.962-.214l1.1-.658a10.8,10.8,0,0,0-2.567-.22,3.938,3.938,0,0,1,2.889.043l.783-.349s-1.181-.234-1.527-.27-.362-.132-.362-.132a4.09,4.09,0,0,1,2.215.247A9.651,9.651,0,0,0,661.685,802.355Z" transform="translate(-500.164 -799.248)" fill="#20d29b"/>
      <ellipse id="Ellipse_216" data-name="Ellipse 216" cx="6.703" cy="1.132" rx="6.703" ry="1.132" transform="translate(148.299 10.323)" fill="#6c63ff" opacity="0.1"/>
    </g>
    <g id="browser" transform="translate(44.993 31.426)">
      <path id="Path_5853" data-name="Path 5853" d="M491.71,277.958V117H178.65V268.724a62.325,62.325,0,0,0,13.821,8.451q3.705,1.708,7.569,3.123H487.975Z" transform="translate(-178.65 -117)" fill="url(#linear-gradient)"/>
      <path id="Path_5854" data-name="Path 5854" d="M492.5,287.416V131H180.73V278.456a62.959,62.959,0,0,0,13.755,8.227q3.692,1.645,7.542,3.034H488.772Z" transform="translate(-180.046 -126.393)" fill="#fff"/>
      <rect id="Rectangle_2472" data-name="Rectangle 2472" width="311.767" height="8.273" transform="translate(0.688 0.457)" fill="#5a5773"/>
    </g>
    <g id="buttons" transform="translate(49.768 33.881)">
      <circle id="Ellipse_217" data-name="Ellipse 217" cx="2.139" cy="2.139" r="2.139" fill="#fff"/>
      <circle id="Ellipse_218" data-name="Ellipse 218" cx="2.139" cy="2.139" r="2.139" transform="translate(5.759)" fill="#fff"/>
      <circle id="Ellipse_219" data-name="Ellipse 219" cx="2.139" cy="2.139" r="2.139" transform="translate(11.517)" fill="#fff"/>
    </g>
    <g id="boxes" transform="translate(54.046 58.338)">
      <rect id="Rectangle_2473" data-name="Rectangle 2473" width="51.499" height="32.361" transform="translate(71.306)" fill="#d19e66"/>
      <rect id="Rectangle_2474" data-name="Rectangle 2474" width="51.499" height="32.361" fill="#5a5773" opacity="0.2"/>
      <rect id="Rectangle_2475" data-name="Rectangle 2475" width="51.499" height="32.361" transform="translate(142.612)" fill="#5a5773" opacity="0.2"/>
      <rect id="Rectangle_2476" data-name="Rectangle 2476" width="51.499" height="32.361" transform="translate(0 46.264)" fill="#5a5773" opacity="0.2"/>
      <rect id="Rectangle_2477" data-name="Rectangle 2477" width="51.499" height="32.361" transform="translate(71.306 46.264)" fill="#5a5773" opacity="0.2"/>
      <rect id="Rectangle_2478" data-name="Rectangle 2478" width="51.499" height="32.361" transform="translate(142.612 46.264)" fill="#5a5773" opacity="0.2"/>
      <rect id="Rectangle_2479" data-name="Rectangle 2479" width="51.499" height="32.361" transform="translate(0 92.524)" fill="#5a5773" opacity="0.2"/>
      <rect id="Rectangle_2480" data-name="Rectangle 2480" width="51.499" height="32.361" transform="translate(71.306 92.524)" fill="#5a5773" opacity="0.2"/>
      <rect id="Rectangle_2481" data-name="Rectangle 2481" width="51.499" height="32.361" transform="translate(142.612 92.524)" fill="#5a5773" opacity="0.2"/>
    </g>
    <g id="woman" transform="translate(113.391 66.419)">
      <path id="Path_5855" data-name="Path 5855" d="M440.754,296.346s-9.25-16.908-7.69-19.659a37.467,37.467,0,0,0,2.708-6.733s3.416-2.336,3.416-3.291,2.7-3.162,4.13-4.123.711-5.5,0-6.048a12.535,12.535,0,0,1-1.84-2.475s.987-2.748,0-3.574.145-1.645,0-2.475a33.2,33.2,0,0,1,0-3.847,6.2,6.2,0,0,0-3.639-2.633l-.105-.434-.609-2.563s2.962-5.676-1.843-8.648a8.031,8.031,0,0,0-1.063-.559,3.687,3.687,0,0,0-.026-.372,23.257,23.257,0,0,0-.7-4.347c-.25-.8-.576-1.333-.987-1.211a.658.658,0,0,0-.27.155,3,3,0,0,0-.51.6h0a.135.135,0,0,1-.023.036,10.32,10.32,0,0,0-1.132,3.143,18.151,18.151,0,0,0-.329,1.974h0a10.851,10.851,0,0,0-.549,1.221c-.582,1.51-1.264,4.127-.023,6.061,1.053,1.645,2.471,3.906,3.5,5.551l.033.053.062.1-.109.069v.253l.1,1.385.8,11.972a5.092,5.092,0,0,0-.73-.155,6.638,6.638,0,0,0-1.063-.069c-.694-2.728-2.6-5.265-2.962-8.115a7.516,7.516,0,0,1-.056-.859c.03-1.793.477-3.593.441-5.384,0-.329,0-.658-.033-.987h0a2.627,2.627,0,0,0-.026-.273,8.091,8.091,0,0,0-4.4-6.131c-.826-.411-1.721-.685-2.524-1.135-1.856-1.04-3.044-2.916-4.729-4.2a5.235,5.235,0,0,0-4.525-.987,20.883,20.883,0,0,0-2.2.454h0a19.858,19.858,0,0,0-5.038,2.093c-.214.128-.428.26-.632.411a2.784,2.784,0,0,0-1.017,1.188,3.112,3.112,0,0,0-.158,1.28c0,.313,0,.632.02.944-.092,5.265-5.765,9.339-6.233,14.479,0,.122-.02.243-.026.365v.563h0v.411c.082,2.254,1.254,4.354,1.468,6.6.02.2.03.4.033.6a9.951,9.951,0,0,1-.582,3.021,8.843,8.843,0,0,0-2.044.829c-1.724,1.109-4.837,3.024-5.973,6.687a9.794,9.794,0,0,0-.431,2.935,61.293,61.293,0,0,1-.961,10.481,19.6,19.6,0,0,1-.605,2.577.605.605,0,0,0-.02.253l-.684,8.885-.122,1.563-.171,2.225s.049.135.122.362a10.459,10.459,0,0,1,.27,1.027,5.521,5.521,0,0,1,.089,2.3,1.586,1.586,0,0,1-.48.846.354.354,0,0,0-.056.063,6.832,6.832,0,0,0-.52,2.264c-.059.461-.115.987-.171,1.533-.329,3.5-.533,8.75-.658,13.087-.118,4.278-.161,7.657-.161,7.657a8.736,8.736,0,0,0,1.767.875c-.046.115-.1.234-.142.359a17.286,17.286,0,0,0-1.073,4.521c-.276,3.235.629,6.828,5.14,8.678a7.261,7.261,0,0,0,.885.3,2.808,2.808,0,0,0,2.251-.138c0,.194.023.382.033.569.046.8.086,1.537.105,2.152.141,3.85,1.1,10.583,1.1,10.583a14.014,14.014,0,0,1,.043,3.574,19.406,19.406,0,0,0,0,4.123s.987,1.645,0,2.475-1.28,4.936-.987,5.5a.184.184,0,0,1,.016.063c.217,1.366-1.01,21.656-1.01,21.656s-1.162,3.106-2.086,6.331c-.9,3.139-1.58,6.391-.744,7a6.986,6.986,0,0,0,2.6.7c0,.135-.02.27-.033.408a11.725,11.725,0,0,1-.576,3.409c-.392.559-.8,4.9-1,7.24l-.02.26a24.246,24.246,0,0,0-1.06,3.074s-3.149,7.9-2.083,9.948a1.681,1.681,0,0,0,.392.484h0a.887.887,0,0,0,.1.092c1.517,1.214,5.318,1.468,6.7,1.524l-.053,1.955v.072h1.793v-.049c0-.247.039-1.379.1-2.892,0-.27.02-.553.033-.842,0-.227.023-.457.033-.694a12.175,12.175,0,0,0,.78-4.393,19.275,19.275,0,0,1,.691-5.094,14.149,14.149,0,0,1,.912-2.484,11.343,11.343,0,0,0-.22-5.058,3.654,3.654,0,0,0-.658-1.139c0-.069,0-.138,0-.211V410.1a18.984,18.984,0,0,1,.421-4.219.465.465,0,0,1,0-.066c.026-.115.056-.224.086-.329l.02-.072.582.02c1.787.049,3.1.049,3.1.049s1.425-7.286,1.283-10.445v-.428a40.681,40.681,0,0,1,.862-7.407l1.148-11.139a5.858,5.858,0,0,1,0-3.291c.352-.849,1.079-2.425,1.586-3.511.237-.5.424-.9.5-1.069l.046-.092a2.13,2.13,0,0,1-.507-.253h0c-.464-.309-.879-.915.51-1.807,2.136-1.375,1.425-4.811,1.425-4.811a2.47,2.47,0,0,1,.112-2.336c.74-1.1,0-5.222,0-5.222a17.269,17.269,0,0,0,1.461-3.439c.53-1.645,1.869-9.691,2.5-13.571.207-1.274.329-2.1.329-2.1l.02.2.02.217h0l.178,1.833.023.243.329,3.465s.658,9.109.247,12.679v.066a4.22,4.22,0,0,1-.24,1.083c-.757,1.711-.619,8.51-.579,10.014v.3a6.055,6.055,0,0,0-.4,2.323h0a1.491,1.491,0,0,0,.26.691,1.751,1.751,0,0,1,.253,1.069v.033a3.886,3.886,0,0,1-.039.474,9.036,9.036,0,0,1-.5,1.862,6.818,6.818,0,0,0-.474,3.057h0a.968.968,0,0,0,.188.372.879.879,0,0,1,.109.395.142.142,0,0,0,0,.036c.267,2.215-.421,11.991-.829,17.342-.165,2.113-.283,3.534-.283,3.534l-1.129,11.682.112.079c.128.092.369.25.691.441v.026l-.049.352c-.161,1.125-.378,2.435-.615,3.435-.02.076-.036.148-.056.217a3.148,3.148,0,0,0-1.208.484c-2.4,4.255-1.336,7.628,0,8.608a3.458,3.458,0,0,1,.806,2.011l.329,4.242v.487a1.262,1.262,0,0,0,.063.388l.1,1.287.138,1.79h1.093v-2.169h.059c1.724.059,4.5.132,5.716.036h.033a2.135,2.135,0,0,0,.329-.036.826.826,0,0,0,.191-.053c.642-.309,2.241-4.844.8-5.874s-1.76-3.949-1.76-3.949c-.125-.382-.25-.744-.378-1.089v-.224a18.1,18.1,0,0,1,.171-3.771,28.691,28.691,0,0,0,.375-4.5v-.418a5.613,5.613,0,0,0,.734-.24l.053-.023a5.171,5.171,0,0,0,1.227-.727l4.028-17.849.424-2.076,2.419-11.81s-.852-4.123,0-4.808c.313-.25.4-1.316.378-2.55-.033-2.159-.378-4.874-.378-4.874s1.139-1.787,1.711-2.886,0-3.985,0-3.985l1.122-6.608a62.445,62.445,0,0,1,4.413-14.433c2.3-4.854.836-17.961-.658-24.937-.039-.181-.079-.359-.118-.53v-.026c.7-.349,1.566-.77,2.488-1.211l.349-.165c1.168-.55,2.405-1.116,3.514-1.586l.072-.03a24.553,24.553,0,0,1,2.445-.915,4.1,4.1,0,0,1,.75-.155C446.733,306.79,440.754,296.346,440.754,296.346Zm-44.526,22.36h.592c-.069.128-.135.26-.2.392-.04.079-.079.155-.115.234-.217.451-.418.912-.582,1.362.066-.487.148-1.017.24-1.583C396.185,318.986,396.208,318.838,396.227,318.706Zm-1.6,8.579a.245.245,0,0,0,0-.046l-.049-.155c-.036-.105-.069-.211-.1-.329q.306-.092.622-.207h.043v.109c-.016.155-.036.309-.056.461h0a.331.331,0,0,1,0,.059,3.2,3.2,0,0,1-.043.362c-.03.237-.059.467-.086.688-.063-.207-.125-.411-.191-.612a1.559,1.559,0,0,1-.138-.329Z" transform="translate(-386.5 -223.338)" fill="url(#linear-gradient-2)"/>
      <path id="Path_5856" data-name="Path 5856" d="M522.891,244.958l-3.554,1.257-1.29-2.139c-.987-1.645-2.356-3.9-3.366-5.532-1.784-2.876.549-7.259.549-7.259s.421-4.4,1.922-5.755,1.919,5.755,1.919,5.755c6.025,2.738,2.8,9.178,2.8,9.178l.586,2.554Z" transform="translate(-472.05 -224.693)" fill="#efb7b9"/>
      <path id="Path_5857" data-name="Path 5857" d="M531.124,280.72l-3.554,1.257-1.29-2.139v-.188a6.189,6.189,0,0,1,4.413-.872Z" transform="translate(-480.283 -260.455)" opacity="0.1"/>
      <path id="Path_5858" data-name="Path 5858" d="M523.56,295.968l1.78-1.507-.892-13.564a5.635,5.635,0,0,1,8.016,1.78,34.623,34.623,0,0,0,0,3.837c.138.823-.958,1.645,0,2.465s0,3.564,0,3.564a12.371,12.371,0,0,0,1.767,2.465c.684.546,1.372,5.071,0,6.029s-3.945,3.152-3.945,4.11S527,308.437,527,308.437l-2.889-3.82Z" transform="translate(-478.458 -261.29)" fill="#ff6484"/>
      <path id="Path_5859" data-name="Path 5859" d="M396.381,543.307c-6.641-2.817-5.166-9.7-3.916-13.163a17.935,17.935,0,0,1,.879-2.053l3.725-2.261s.76,1.938,1.573,4.538C400.527,536.416,402.7,545.989,396.381,543.307Z" transform="translate(-389.78 -426.289)" fill="#efb7b9"/>
      <path id="Path_5860" data-name="Path 5860" d="M416.574,766.1a11.187,11.187,0,0,0-.987,2.771,20.013,20.013,0,0,0-.428,4.716c.026,1.1.118,1.813.118,1.813l-7.4,5.087s.043-.6.115-1.471c.191-2.33.589-6.654.964-7.213a12.006,12.006,0,0,0,.556-3.4c.115-1.448.161-2.718.161-2.718S418.578,762.354,416.574,766.1Z" transform="translate(-400.845 -586.301)" fill="#efb7b9"/>
      <path id="Path_5861" data-name="Path 5861" d="M472.611,779.458s0,1.415-.053,3.06a31.337,31.337,0,0,1-.359,4.492,18.5,18.5,0,0,0-.168,3.758c.049,1.645.168,3.126.168,3.126s-7.552-7.141-6.782-7.707a3.5,3.5,0,0,0,.6-1.57c.23-.987.438-2.3.592-3.422.184-1.333.3-2.406.3-2.406Z" transform="translate(-439.411 -596.008)" fill="#efb7b9"/>
      <path id="Path_5862" data-name="Path 5862" d="M419.942,766.1a11.188,11.188,0,0,0-.987,2.771,60.449,60.449,0,0,1-6.055-.464c.112-1.415.161-2.718.161-2.718S421.946,762.354,419.942,766.1Z" transform="translate(-404.213 -586.301)" opacity="0.1"/>
      <path id="Path_5863" data-name="Path 5863" d="M475.152,779.471s0,1.415-.053,3.06c-2.356.6-4.778-.6-5.95-1.316.184-1.333.3-2.406.3-2.406Z" transform="translate(-441.953 -596.021)" opacity="0.1"/>
      <path id="Path_5864" data-name="Path 5864" d="M447.094,508.191a63.912,63.912,0,0,0-4.248,14.387l-1.1,6.581s.55,2.876,0,3.972-1.645,2.879-1.645,2.879.823,6.713,0,7.4,0,4.795,0,4.795l-2.741,13.821-3.837,17.809c-3.7,3.018-8.622-.819-8.622-.819l1.086-11.646s1.645-20.4.961-21.238.273-3.426.273-3.426.961-2.468.276-3.426.135-3.014.135-3.014-.273-8.358.55-10.277,0-13.785,0-13.785l-.329-3.7-.191-2.047-.016-.2s-.125.819-.329,2.09c-.606,3.867-1.9,11.879-2.405,13.528a17.619,17.619,0,0,1-1.405,3.426s.711,4.11,0,5.206a2.549,2.549,0,0,0-.109,2.33s.684,3.426-1.372,4.795,0,2.057,0,2.057-1.507,3.291-2.053,4.656a6.092,6.092,0,0,0,0,3.291l-1.1,11.1a40.138,40.138,0,0,0-.823,7.809c.138,3.152-1.234,10.412-1.234,10.412s-10.55,0-12.176-1.234,2.715-13.271,2.715-13.271,1.234-21.1.958-21.646,0-4.66.961-5.479,0-2.468,0-2.468a20.211,20.211,0,0,1,0-4.11,14.58,14.58,0,0,0-.043-3.564s-.918-6.713-1.053-10.55-.823-12.465-.823-12.465.717-5.338.826-7.878a8.946,8.946,0,0,1,.987-3.2,28.562,28.562,0,0,1,2.04-3.58s32.463-9.6,33.825-8.641c.362.253.888,1.974,1.408,4.466C447.9,490.289,449.312,503.353,447.094,508.191Z" transform="translate(-398.431 -394.733)" fill="#444053"/>
      <circle id="Ellipse_220" data-name="Ellipse 220" cx="9.454" cy="9.454" r="9.454" transform="translate(19.208 10.811)" fill="#a1616a"/>
      <path id="Path_5865" data-name="Path 5865" d="M456.417,483.336c-1.089.559-1.82.944-1.82.944s-15.345,7.263-19.708,6.851c-3.376-.329-11.995-.141-15.749-.049a28.57,28.57,0,0,1,2.04-3.58s32.466-9.592,33.828-8.638C455.37,479.124,455.9,480.838,456.417,483.336Z" transform="translate(-408.399 -394.733)" opacity="0.1"/>
      <path id="Path_5866" data-name="Path 5866" d="M415.862,325.875s-8.757,1.382-10.823,2.738-6.16,3.975-6.16,9.592a54.422,54.422,0,0,1-1.507,13.015c-.55,1.642,8.632,14.933,8.632,14.933L402.712,386.3s13.163-.411,17.546,0,19.721-6.851,19.721-6.851,9.043-4.795,10.961-4.936-3.837-10.55-3.837-10.55-8.908-16.848-7.4-19.589a37.863,37.863,0,0,0,2.613-6.713l-1.645-13.972a5.375,5.375,0,0,0-4.521.684c-2.057,1.507-9.043.684-9.043.684Z" transform="translate(-393.778 -290.512)" fill="#ff6484"/>
      <path id="Path_5867" data-name="Path 5867" d="M396.424,391.081l-3.435.958-.951,12.893s1.234,3.426,0,4.521-1.507,24.526-1.507,24.526a8.959,8.959,0,0,0,8.631.684s-.685-2.6,1.372-12.057,2.053-14.249,2.053-14.249,0-11.784.961-13.7,0-6.713,0-6.713-1.918-2.6-1.784-3.56S396.424,391.081,396.424,391.081Z" transform="translate(-389.204 -331.331)" opacity="0.1"/>
      <path id="Path_5868" data-name="Path 5868" d="M400.837,530.4a8.75,8.75,0,0,1-6.177-.224,17.929,17.929,0,0,1,.879-2.053l3.725-2.261S400.037,527.8,400.837,530.4Z" transform="translate(-391.975 -426.309)" opacity="0.1"/>
      <path id="Path_5869" data-name="Path 5869" d="M395.8,391.054l-3.426.958-.958,12.893s1.234,3.426,0,4.521-1.507,24.526-1.507,24.526a8.949,8.949,0,0,0,8.631.671s-.684-2.6,1.369-12.057,2.057-14.249,2.057-14.249,0-11.784.958-13.7,0-6.713,0-6.713-1.918-2.6-1.78-3.561S395.8,391.054,395.8,391.054Z" transform="translate(-388.788 -331.304)" fill="#ff6484"/>
      <path id="Path_5870" data-name="Path 5870" d="M500.149,411.15s-1.78,15.344-6.989,18.224C493.16,429.374,504.806,426.086,500.149,411.15Z" transform="translate(-458.062 -349.347)" opacity="0.1"/>
      <path id="Path_5871" data-name="Path 5871" d="M434.88,415.32s6.437,3.149,4.936,5.341S434.88,415.32,434.88,415.32Z" transform="translate(-418.96 -352.145)" opacity="0.1"/>
      <path id="Path_5872" data-name="Path 5872" d="M434.88,434.47s4.11,4.248,3.291,5.755S434.88,434.47,434.88,434.47Z" transform="translate(-418.96 -364.993)" opacity="0.1"/>
      <path id="Path_5873" data-name="Path 5873" d="M535.63,327.47a14.563,14.563,0,0,1,1.767,4.521C537.552,333.775,535.63,327.47,535.63,327.47Z" transform="translate(-486.556 -293.203)" opacity="0.1"/>
      <path id="Path_5874" data-name="Path 5874" d="M535.63,315.607s.81-.688,2.876,0S535.63,315.607,535.63,315.607Z" transform="translate(-486.556 -285.039)" opacity="0.1"/>
      <path id="Path_5875" data-name="Path 5875" d="M487.249,553.609a19.053,19.053,0,0,1-10.02-1.283l-1.728,4.423-.191-2.047c.283-1.718.833-3.557,1.918-4.021A16.63,16.63,0,0,0,487.249,553.609Z" transform="translate(-446.085 -442.962)" opacity="0.1"/>
      <path id="Path_5876" data-name="Path 5876" d="M426.18,577.07s8.427,1.747,10.79,1.438Z" transform="translate(-413.123 -460.668)" opacity="0.1"/>
      <path id="Path_5877" data-name="Path 5877" d="M428.84,583.752a17.408,17.408,0,0,1,5.393.566Z" transform="translate(-414.907 -465.141)" opacity="0.1"/>
      <path id="Path_5878" data-name="Path 5878" d="M430.09,588.31a32.246,32.246,0,0,0,4.982.658Z" transform="translate(-415.746 -468.209)" opacity="0.1"/>
      <path id="Path_5879" data-name="Path 5879" d="M429.46,643.589c.155-.1,7.193-1.747,8.069-.566Z" transform="translate(-415.323 -504.633)" opacity="0.1"/>
      <path id="Path_5880" data-name="Path 5880" d="M429.46,651.517s6.114-.721,6.269,0S429.46,651.517,429.46,651.517Z" transform="translate(-415.323 -510.401)" opacity="0.1"/>
      <path id="Path_5881" data-name="Path 5881" d="M429.46,655.915s6.525-1.349,7.3-1.02S429.46,655.915,429.46,655.915Z" transform="translate(-415.323 -512.848)" opacity="0.1"/>
      <path id="Path_5882" data-name="Path 5882" d="M415.317,792.4l-7.4,5.087s.043-.6.115-1.471a19.943,19.943,0,0,1,3.788-6.183c1.668-.434,2.721-.033,3.376.754C415.225,791.683,415.317,792.4,415.317,792.4Z" transform="translate(-400.871 -603.3)" opacity="0.1"/>
      <path id="Path_5883" data-name="Path 5883" d="M409.618,797.386a18.358,18.358,0,0,0-1.543,7.569,11.738,11.738,0,0,1-1.566,6.091,6,6,0,0,1-.52.744s-5.14-.043-6.94-1.533a1.78,1.78,0,0,1-.484-.592c-1.03-2.053,2-9.915,2-9.915a21.833,21.833,0,0,1,4.827-9.3C411.158,788.959,409.618,797.386,409.618,797.386Z" transform="translate(-394.452 -603.712)" fill="#444053"/>
      <path id="Path_5884" data-name="Path 5884" d="M407.93,830.424a6,6,0,0,1-.52.744s-5.14-.043-6.94-1.534c.885-2.929,3.709-11.791,5.031-10.283C406.745,820.766,407.611,827.574,407.93,830.424Z" transform="translate(-395.873 -623.107)" opacity="0.1"/>
      <path id="Path_5885" data-name="Path 5885" d="M420.269,819.894l-.359,13.275h1.724s.28-11.646,1.05-13.275S420.269,819.894,420.269,819.894Z" transform="translate(-408.916 -623.1)" fill="#444053"/>
      <path id="Path_5886" data-name="Path 5886" d="M472.2,805.681s-7.552-7.141-6.782-7.707a3.5,3.5,0,0,0,.6-1.57c1.451-.253,3.949.352,6.015,6.15C472.081,804.2,472.2,805.681,472.2,805.681Z" transform="translate(-439.411 -607.795)" opacity="0.1"/>
      <path id="Path_5887" data-name="Path 5887" d="M469.388,814.071a.766.766,0,0,1-.181.053,53.666,53.666,0,0,1-6,0,1.3,1.3,0,0,1-1.254-1.293c0-.494,0-1.1-.039-1.737-.086-2.027-.329-4.439-1.056-4.982-1.287-.987-2.3-4.337,0-8.579,0,0,4.416-3.373,7.6,6.766,0,0,.309,2.893,1.695,3.919S470.007,813.778,469.388,814.071Z" transform="translate(-435.471 -608.221)" fill="#444053"/>
      <path id="Path_5888" data-name="Path 5888" d="M474.139,831.534a53.622,53.622,0,0,1-6,0,1.3,1.3,0,0,1-1.254-1.293c0-.494,0-1.1-.039-1.738.556-2.455,1.356-4.982,2.386-5.558C469.242,822.942,472.359,822.589,474.139,831.534Z" transform="translate(-440.409 -625.631)" opacity="0.1"/>
      <path id="Path_5889" data-name="Path 5889" d="M423.46,798.661l.829,11.047h1.053V797.72Z" transform="translate(-397.51 -601.647)" fill="#444053"/>
      <path id="Path_5890" data-name="Path 5890" d="M434.95,239.089a18.9,18.9,0,0,0-8.431,2.708,3.5,3.5,0,0,0-1.589,1.6,5.29,5.29,0,0,0-.128,1.974c.089,5.667-6.229,9.954-6.032,15.618.079,2.247,1.208,4.34,1.415,6.581.346,3.738-1.866,7.177-3.985,10.274a8.51,8.51,0,0,0,6.006-1.991,45.539,45.539,0,0,1,.839,22.953h3.031a2.3,2.3,0,0,1,.885.109,2.224,2.224,0,0,1,.7.523c2.833,2.82,4.732,6.989,3.649,10.84l6.45-2.419a19.162,19.162,0,0,0,4.452-2.122,6.429,6.429,0,0,0,2.751-3.965c.174-.987.118-2.165.931-2.738a5.069,5.069,0,0,1,1.27-.471c1.77-.625,2.554-2.672,2.916-4.515a26,26,0,0,0,.411-6.868c-.286-3.85-1.425-7.759-.487-11.517.53-2.109,1.708-4.074,1.8-6.252.155-3.59-2.652-6.683-3.07-10.254-.293-2.488.606-5.005.313-7.493a8.049,8.049,0,0,0-4.235-6.111c-.793-.408-1.645-.681-2.429-1.132-1.787-1.037-2.929-2.9-4.551-4.186s-4.324-1.767-5.545-.1Z" transform="translate(-406.427 -233.889)" opacity="0.1"/>
      <path id="Path_5891" data-name="Path 5891" d="M434.95,237.826a18.9,18.9,0,0,0-8.431,2.708,3.5,3.5,0,0,0-1.589,1.6,5.29,5.29,0,0,0-.128,1.974c.089,5.667-6.229,9.954-6.032,15.621.079,2.244,1.208,4.337,1.415,6.581.346,3.738-1.866,7.177-3.985,10.277a8.556,8.556,0,0,0,6.006-1.991,45.524,45.524,0,0,1,.839,22.946h3.031a2.3,2.3,0,0,1,.885.112,2.165,2.165,0,0,1,.7.52c2.833,2.823,4.732,6.989,3.649,10.84l6.45-2.419a19.159,19.159,0,0,0,4.452-2.123,6.429,6.429,0,0,0,2.751-3.965c.174-.987.118-2.165.931-2.738a5.067,5.067,0,0,1,1.27-.471c1.77-.625,2.554-2.672,2.916-4.515a26,26,0,0,0,.421-6.874c-.286-3.85-1.425-7.759-.487-11.517.53-2.109,1.708-4.074,1.8-6.252.155-3.59-2.652-6.683-3.07-10.254-.293-2.488.606-5,.313-7.493a8.056,8.056,0,0,0-4.235-6.111c-.793-.408-1.645-.681-2.429-1.129-1.787-1.04-2.929-2.906-4.551-4.189s-4.324-1.767-5.545-.1Z" transform="translate(-406.427 -233.037)" fill="#925978"/>
      <g id="Group_7100" data-name="Group 7100" transform="translate(9.773 9.698)" opacity="0.1">
        <path id="Path_5892" data-name="Path 5892" d="M442.28,252.81a3.674,3.674,0,0,0-.02.382C442.27,253.067,442.276,252.938,442.28,252.81Z" transform="translate(-433.684 -252.81)"/>
        <path id="Path_5893" data-name="Path 5893" d="M514.943,282.172a35.015,35.015,0,0,0,.362-5.232A37.856,37.856,0,0,0,514.943,282.172Z" transform="translate(-482.431 -269)"/>
        <path id="Path_5894" data-name="Path 5894" d="M425.417,306.986c-.191-2.04-1.142-3.949-1.366-5.986a7.5,7.5,0,0,0-.049,1.125c.079,2.221,1.181,4.3,1.405,6.509A8.886,8.886,0,0,0,425.417,306.986Z" transform="translate(-421.432 -285.142)"/>
        <path id="Path_5895" data-name="Path 5895" d="M518.267,332.206a14.11,14.11,0,0,0-.329,4.087,12.4,12.4,0,0,1,.329-2.373c.53-2.109,1.708-4.074,1.8-6.252a6.786,6.786,0,0,0-.053-1.158C519.761,328.468,518.738,330.291,518.267,332.206Z" transform="translate(-484.439 -302.258)"/>
        <path id="Path_5896" data-name="Path 5896" d="M422.206,344.36a8.556,8.556,0,0,1-4.857,1.974c-.375.586-.763,1.158-1.148,1.724a8.556,8.556,0,0,0,6.006-1.991,45.413,45.413,0,0,1,1.915,12.324A45.515,45.515,0,0,0,422.206,344.36Z" transform="translate(-416.2 -314.234)"/>
        <path id="Path_5897" data-name="Path 5897" d="M480.92,391.237c-.362,1.843-1.145,3.89-2.916,4.512a4.935,4.935,0,0,0-1.27.474c-.813.573-.757,1.757-.931,2.738a6.348,6.348,0,0,1-2.751,3.949,19.783,19.783,0,0,1-4.452,2.126l-6.154,2.3a8.494,8.494,0,0,1-.3,1.826l6.45-2.419a19.159,19.159,0,0,0,4.452-2.122,6.43,6.43,0,0,0,2.751-3.965c.174-.987.118-2.165.931-2.738a5.064,5.064,0,0,1,1.27-.471c1.77-.625,2.554-2.672,2.916-4.515a25.8,25.8,0,0,0,.464-5.825A25.758,25.758,0,0,1,480.92,391.237Z" transform="translate(-447.029 -342.916)"/>
        <path id="Path_5898" data-name="Path 5898" d="M441.674,414.695a2.176,2.176,0,0,0-.7-.523,2.353,2.353,0,0,0-.885-.112H437.4c-.105.573-.217,1.145-.329,1.714H440.1a2.3,2.3,0,0,1,.885.112,2.165,2.165,0,0,1,.7.52,13.036,13.036,0,0,1,3.913,7.707C445.932,420.7,444.161,417.183,441.674,414.695Z" transform="translate(-430.202 -360.994)"/>
      </g>
      <path id="Path_5899" data-name="Path 5899" d="M405.37,449.15s2.448-1.027,2.995,0S405.37,449.15,405.37,449.15Z" transform="translate(-399.16 -374.536)" opacity="0.1"/>
      <path id="Path_5900" data-name="Path 5900" d="M408,454.5s2.448-1.027,3,0S408,454.5,408,454.5Z" transform="translate(-400.925 -378.125)" opacity="0.1"/>
    </g>
    <g id="leaves" transform="translate(236.088 2.817)">
      <path id="Path_5901" data-name="Path 5901" d="M846.346,51.647s-12.521-.754-11.044,8.019a2.14,2.14,0,0,0,1.112,2.254s.023-.658,1.283-.431a5.763,5.763,0,0,0,1.359.066,2.82,2.82,0,0,0,1.659-.688h0s3.518-1.451,4.887-7.2c0,0,1.014-1.257.987-1.58l-2.113.9a3.786,3.786,0,0,1,.151,2.791s-.066-2.738-.474-2.672c-.082,0-1.1.527-1.1.527s1.241,2.656.3,4.587c0,0,.355-3.271-.691-4.393l-1.494.885s1.451,2.741.467,4.979c0,0,.253-3.432-.78-4.768l-1.349,1.05s1.366,2.688.543,4.544c0,0-.109-4-.826-4.3a8.141,8.141,0,0,0-1.356,1.468s.931,1.974.352,2.995c0,0-.355-2.659-.658-2.672a8.858,8.858,0,0,0-1.3,2.962,6.421,6.421,0,0,1,1.01-3.143,3.511,3.511,0,0,0-1.8.935s.181-1.247,2.086-1.359a8.206,8.206,0,0,1,1.231-1.418,7.716,7.716,0,0,0-3.044.352s1.01-1.178,3.393-.658l1.316-1.086a11.355,11.355,0,0,0-3.554.036s1.218-1.04,3.913-.283l1.448-.865a13,13,0,0,0-3.393-.293,5.2,5.2,0,0,1,3.817.059l1.037-.464s-1.56-.306-2.014-.355-.48-.174-.48-.174a5.384,5.384,0,0,1,2.925.329A13.3,13.3,0,0,0,846.346,51.647Z" transform="translate(-810.232 -44.533)" fill="#6c63ff" opacity="0.1"/>
      <path id="Path_5902" data-name="Path 5902" d="M802.24,30.06s-10.53,6.815-4.143,13a2.141,2.141,0,0,0,2.231,1.158s-.369-.54.78-1.109a5.714,5.714,0,0,0,1.135-.754,2.833,2.833,0,0,0,.931-1.537h0s1.974-3.258-.329-8.7c0,0,.072-1.612-.151-1.849l-1.165,1.974a3.787,3.787,0,0,1,1.777,2.155s-1.675-2.162-1.974-1.869c-.059.059-.573,1.076-.573,1.076s2.577,1.4,2.962,3.511c0,0-1.645-2.846-3.162-3.126l-.685,1.58s2.8,1.349,3.33,3.735c0,0-1.833-2.916-3.455-3.38l-.461,1.645s2.7,1.369,3.129,3.357c0,0-2.455-3.152-3.212-2.962a8.337,8.337,0,0,0-.224,1.974s1.915,1.027,2.06,2.2c0,0-1.862-1.932-2.1-1.77a8.878,8.878,0,0,0,.714,3.162,6.427,6.427,0,0,1-1.046-3.129,3.521,3.521,0,0,0-.9,1.816s-.592-1.112.879-2.33a9.005,9.005,0,0,1,.148-1.872,7.618,7.618,0,0,0-2.244,2.086s.119-1.547,2.353-2.527l.428-1.662a10.982,10.982,0,0,0-2.84,2.136s.365-1.56,2.981-2.547l.658-1.556a13.391,13.391,0,0,0-2.909,1.777,5.235,5.235,0,0,1,3.113-2.215l.559-.987s-1.438.678-1.833.908-.49.145-.49.145a5.393,5.393,0,0,1,2.55-1.471A13.084,13.084,0,0,0,802.24,30.06Z" transform="translate(-783.971 -30.06)" fill="#6c63ff" opacity="0.1"/>
      <path id="Path_5903" data-name="Path 5903" d="M761.606,54.13s-6.3,10.859,2.2,13.469a2.122,2.122,0,0,0,2.514,0s-.569-.309.194-1.339a5.762,5.762,0,0,0,.658-1.185,2.843,2.843,0,0,0,.135-1.793h0s.28-3.8-4.245-7.6c0,0-.658-1.468-.987-1.576l-.142,2.3a3.794,3.794,0,0,1,2.563,1.116s-2.475-1.168-2.6-.777c-.026.079-.023,1.218-.023,1.218s2.958.089,4.275,1.793c0,0-2.764-1.787-4.235-1.352l.105,1.718s3.1-.066,4.66,1.82c0,0-2.962-1.767-4.607-1.445l.329,1.675s3.027,0,4.311,1.573c0,0-3.62-1.7-4.209-1.195a8.133,8.133,0,0,0,.7,1.872s2.172.046,2.837,1.03c0,0-2.537-.879-2.679-.622a8.869,8.869,0,0,0,2.073,2.491,6.426,6.426,0,0,1-2.353-2.3,3.524,3.524,0,0,0,.026,2.024s-1.033-.721-.276-2.475a8.272,8.272,0,0,1-.714-1.734,7.82,7.82,0,0,0-1.053,2.876s-.6-1.431.948-3.317l-.372-1.678a10.987,10.987,0,0,0-1.563,3.192s-.382-1.556,1.5-3.62l-.125-1.682a13.136,13.136,0,0,0-1.784,2.9,5.193,5.193,0,0,1,1.767-3.386l.049-1.135s-.987,1.254-1.221,1.645-.372.336-.372.336a5.416,5.416,0,0,1,1.606-2.471A13.407,13.407,0,0,0,761.606,54.13Z" transform="translate(-759.362 -46.189)" fill="#6c63ff" opacity="0.1"/>
    </g>
    <path id="Path_5904" data-name="Path 5904" d="M902.358,355.031a4.709,4.709,0,1,0,4.709,4.709A4.709,4.709,0,0,0,902.358,355.031ZM888.59,318.08v4.709H893.3l8.477,17.171-3.544,5.769a4.528,4.528,0,0,0-.589,2.238c0,3.152,2.156,4.709,5.078,4.709h27.533v-4.528H903.3a.556.556,0,0,1-.589-.589,2.957,2.957,0,0,1,.25-.586l2.353-3.715h17.543a4.607,4.607,0,0,0,4.12-2.471l8.48-14.581a2.733,2.733,0,0,0,.237-1.178,2.264,2.264,0,0,0-2.356-2.238H898.482l-2.238-4.709Zm36.951,36.951a4.709,4.709,0,1,0,4.712,4.71A4.709,4.709,0,0,0,925.541,355.031Z" transform="translate(-609.977 -220.484)" fill="#d19e66"/>
    <path id="Path_5905" data-name="Path 5905" d="M13.111,3.622a3.65,3.65,0,0,0-4.82.691,3.643,3.643,0,0,0-4.82-.691A3.437,3.437,0,0,0,2,6.318c-.088,2.438,2.076,4.392,5.38,7.39l.063.057a1.257,1.257,0,0,0,1.693-.006l.069-.063c3.3-2.991,5.462-4.945,5.38-7.383A3.435,3.435,0,0,0,13.111,3.622ZM8.354,12.771l-.063.063-.063-.063c-3-2.708-4.971-4.5-4.971-6.315a2.149,2.149,0,0,1,2.2-2.2A2.46,2.46,0,0,1,7.706,5.739H8.882a2.444,2.444,0,0,1,2.24-1.483,2.149,2.149,0,0,1,2.2,2.2C13.325,8.272,11.349,10.063,8.354,12.771Z" transform="translate(297.167 104.205)" fill="#fff"/>
  </g>
</svg>
