<svg id="finger" data-name="Group 7049" xmlns="http://www.w3.org/2000/svg" viewBox="0 0 27.996 30">
  <path d="M26.057,5.7a.744.744,0,0,1-.358-.09A18.327,18.327,0,0,0,17.034,3.5,18.322,18.322,0,0,0,8.369,5.615a.822.822,0,0,1-1.073-.3A.745.745,0,0,1,7.607,4.3,20.474,20.474,0,0,1,26.415,4.28a.722.722,0,0,1,.327,1.005A.765.765,0,0,1,26.057,5.7ZM3.78,13.58a.832.832,0,0,1-.451-.135.731.731,0,0,1-.187-1.05,15.925,15.925,0,0,1,5.834-4.9,18.555,18.555,0,0,1,16.039-.015,15.99,15.99,0,0,1,5.834,4.875.733.733,0,0,1-.187,1.05.794.794,0,0,1-1.089-.18A14.464,14.464,0,0,0,24.3,8.81a16.938,16.938,0,0,0-14.623.015,14.613,14.613,0,0,0-5.289,4.44A.685.685,0,0,1,3.78,13.58ZM13.5,31.685a.743.743,0,0,1-.544-.225A15.239,15.239,0,0,1,9.831,27.5,12.935,12.935,0,0,1,8.2,20.99c0-4.455,3.951-8.085,8.805-8.085s8.805,3.63,8.805,8.085a.778.778,0,0,1-1.556,0c0-3.63-3.251-6.585-7.249-6.585S9.753,17.36,9.753,20.99A11.416,11.416,0,0,0,11.2,26.765a14.273,14.273,0,0,0,2.878,3.63.75.75,0,0,1,0,1.065A.871.871,0,0,1,13.5,31.685Zm11.17-2.775a8.605,8.605,0,0,1-4.823-1.335,7.917,7.917,0,0,1-3.7-6.585.778.778,0,0,1,1.556,0,6.4,6.4,0,0,0,3.018,5.34A7.009,7.009,0,0,0,24.672,27.4a10.652,10.652,0,0,0,1.618-.15.773.773,0,0,1,.9.615.751.751,0,0,1-.638.87A11.007,11.007,0,0,1,24.672,28.91ZM21.545,32a.942.942,0,0,1-.2-.03,12.258,12.258,0,0,1-5.787-3.15,10.752,10.752,0,0,1-3.376-7.83,4.617,4.617,0,0,1,4.791-4.41,4.617,4.617,0,0,1,4.791,4.41A3.086,3.086,0,0,0,25,23.9a3.086,3.086,0,0,0,3.236-2.91c0-5.655-5.056-10.245-11.279-10.245A11.411,11.411,0,0,0,6.673,16.79a9.358,9.358,0,0,0-.918,4.2A14.429,14.429,0,0,0,6.8,26.405a.725.725,0,0,1-.451.96.78.78,0,0,1-1-.435,16.182,16.182,0,0,1-1.136-5.94,10.928,10.928,0,0,1,1.058-4.86,12.97,12.97,0,0,1,11.683-6.9c7.078,0,12.834,5.265,12.834,11.745A4.617,4.617,0,0,1,25,25.385a4.617,4.617,0,0,1-4.791-4.41,3.086,3.086,0,0,0-3.236-2.91,3.086,3.086,0,0,0-3.236,2.91,9.279,9.279,0,0,0,2.909,6.765,10.681,10.681,0,0,0,5.087,2.775.742.742,0,0,1,.544.915A.754.754,0,0,1,21.545,32Z" transform="translate(-2.997 -2)"/>
</svg>
