<svg id="heart" xmlns="http://www.w3.org/2000/svg" viewBox="0 0 21.434 19.09">
    <path fill="CurrentColor" id="Path_5662" data-name="Path 5662"
          d="M20.258,4.022a6,6,0,0,0-7.919,1.136A5.986,5.986,0,0,0,4.419,4.022,5.647,5.647,0,0,0,2,8.451c-.145,4.006,3.412,7.217,8.839,12.142l.1.093a2.066,2.066,0,0,0,2.781-.01l.114-.1c5.428-4.914,8.974-8.125,8.839-12.131A5.644,5.644,0,0,0,20.258,4.022ZM12.442,19.055l-.1.1-.1-.1C7.314,14.6,4.068,11.662,4.068,8.678A3.531,3.531,0,0,1,7.686,5.065,4.042,4.042,0,0,1,11.377,7.5H13.31a4.016,4.016,0,0,1,3.681-2.437A3.531,3.531,0,0,1,20.61,8.678C20.61,11.662,17.363,14.6,12.442,19.055Z"
          transform="translate(-1.621 -2.618)" stroke="#fff" stroke-width="0.75"/>
</svg>
