<svg id="instagram" xmlns="http://www.w3.org/2000/svg" xmlns:xlink="http://www.w3.org/1999/xlink"  viewBox="0 0 24.021 24.021">
  <defs>
    <linearGradient id="linear-gradient" x1="0.084" y1="0.916" x2="0.916" y2="0.084" gradientUnits="objectBoundingBox">
      <stop offset="0" stop-color="#d19e66"/>
      <stop offset="0.5" stop-color="#d19e66"/>
      <stop offset="1" stop-color="#d19e66"/>
    </linearGradient>
  </defs>
  <g id="Group_7153" data-name="Group 7153" transform="translate(0 0)">
    <path fill="CurrentColor" id="Path_5804" data-name="Path 5804"
          d="M23.949,7.059a8.818,8.818,0,0,0-.558-2.915,5.886,5.886,0,0,0-1.385-2.127A5.888,5.888,0,0,0,19.878.63,8.816,8.816,0,0,0,16.962.072C15.682.014,15.272,0,12.011,0S8.339.014,7.059.072A8.819,8.819,0,0,0,4.143.63,5.887,5.887,0,0,0,2.016,2.016,5.888,5.888,0,0,0,.63,4.143,8.817,8.817,0,0,0,.072,7.058C.014,8.339,0,8.749,0,12.01s.014,3.671.073,4.952a8.816,8.816,0,0,0,.558,2.915,5.886,5.886,0,0,0,1.385,2.127A5.885,5.885,0,0,0,4.143,23.39a8.813,8.813,0,0,0,2.915.558c1.281.058,1.69.072,4.952.072s3.671-.014,4.952-.072a8.814,8.814,0,0,0,2.915-.558,6.14,6.14,0,0,0,3.513-3.513,8.815,8.815,0,0,0,.558-2.915c.058-1.281.072-1.69.072-4.952s-.014-3.671-.072-4.952Zm-2.162,9.805a6.645,6.645,0,0,1-.413,2.23,3.977,3.977,0,0,1-2.28,2.28,6.645,6.645,0,0,1-2.23.413c-1.266.058-1.646.07-4.853.07s-3.587-.012-4.854-.07a6.648,6.648,0,0,1-2.23-.413,3.722,3.722,0,0,1-1.381-.9,3.721,3.721,0,0,1-.9-1.381,6.645,6.645,0,0,1-.413-2.23c-.058-1.266-.07-1.646-.07-4.853s.012-3.587.07-4.854a6.65,6.65,0,0,1,.413-2.23,3.724,3.724,0,0,1,.9-1.381,3.719,3.719,0,0,1,1.381-.9,6.644,6.644,0,0,1,2.23-.414c1.266-.058,1.646-.07,4.853-.07h0c3.207,0,3.587.012,4.854.07a6.646,6.646,0,0,1,2.23.413,3.724,3.724,0,0,1,1.381.9,3.719,3.719,0,0,1,.9,1.381,6.639,6.639,0,0,1,.414,2.23c.058,1.266.07,1.646.07,4.853s-.012,3.587-.07,4.854Zm0,0"
    />
    <path fill="CurrentColor"  id="Path_5805" data-name="Path 5805"
          d="M130.707,124.539a6.168,6.168,0,1,0,6.168,6.168A6.168,6.168,0,0,0,130.707,124.539Zm0,10.171a4,4,0,1,1,4-4A4,4,0,0,1,130.707,134.71Zm0,0"
          transform="translate(-118.696 -118.696)"/>
    <path fill="CurrentColor"  id="Path_5806" data-name="Path 5806"
          d="M364.812,90.067a1.441,1.441,0,1,1-1.441-1.441A1.441,1.441,0,0,1,364.812,90.067Zm0,0"
          transform="translate(-344.949 -84.468)"/>
  </g>
</svg>
