<svg id="instagram-social" xmlns="http://www.w3.org/2000/svg" xmlns:xlink="http://www.w3.org/1999/xlink" viewBox="0 0 30.659 30.659">
  <defs>
    <linearGradient id="linear-gradient" x1="0.084" y1="0.916" x2="0.916" y2="0.084" gradientUnits="objectBoundingBox">
      <stop offset="0" stop-color="#ffd600"/>
      <stop offset="0.5" stop-color="#ff0100"/>
      <stop offset="1" stop-color="#d800b9"/>
    </linearGradient>
    <linearGradient id="linear-gradient-2" x1="0.146" y1="0.854" x2="0.854" y2="0.146" gradientUnits="objectBoundingBox">
      <stop offset="0" stop-color="#ff6400"/>
      <stop offset="0.5" stop-color="#ff0100"/>
      <stop offset="1" stop-color="#fd0056"/>
    </linearGradient>
    <linearGradient id="linear-gradient-3" x1="0.146" y1="0.854" x2="0.854" y2="0.146" gradientUnits="objectBoundingBox">
      <stop offset="0" stop-color="#f30072"/>
      <stop offset="1" stop-color="#e50097"/>
    </linearGradient>
  </defs>
  <g id="instagram_3_" transform="translate(0 0)">
    <path   d="M30.567,9.009a11.254,11.254,0,0,0-.713-3.721,7.513,7.513,0,0,0-1.768-2.715A7.515,7.515,0,0,0,25.371.8,11.252,11.252,0,0,0,21.65.092C20.015.018,19.493,0,15.329,0s-4.685.018-6.32.092A11.256,11.256,0,0,0,5.288.8,7.513,7.513,0,0,0,2.573,2.573,7.514,7.514,0,0,0,.8,5.288,11.254,11.254,0,0,0,.092,9.009C.018,10.644,0,11.166,0,15.329s.018,4.686.093,6.321A11.252,11.252,0,0,0,.8,25.371a7.512,7.512,0,0,0,1.768,2.715,7.511,7.511,0,0,0,2.715,1.768,11.248,11.248,0,0,0,3.721.713c1.635.075,2.157.092,6.32.092s4.685-.018,6.32-.092a11.25,11.25,0,0,0,3.721-.713,7.837,7.837,0,0,0,4.483-4.483,11.251,11.251,0,0,0,.713-3.721c.074-1.635.092-2.157.092-6.32s-.018-4.685-.092-6.32ZM27.807,21.524a8.482,8.482,0,0,1-.528,2.846A5.076,5.076,0,0,1,24.37,27.28a8.482,8.482,0,0,1-2.846.528c-1.616.074-2.1.089-6.194.089s-4.578-.015-6.195-.089a8.484,8.484,0,0,1-2.846-.528,4.751,4.751,0,0,1-1.763-1.147,4.749,4.749,0,0,1-1.147-1.763,8.482,8.482,0,0,1-.528-2.846c-.074-1.616-.089-2.1-.089-6.194s.016-4.578.089-6.195a8.488,8.488,0,0,1,.528-2.846A4.753,4.753,0,0,1,4.526,4.526,4.746,4.746,0,0,1,6.289,3.379a8.48,8.48,0,0,1,2.846-.528c1.616-.074,2.1-.089,6.194-.089h0c4.093,0,4.578.016,6.195.09a8.483,8.483,0,0,1,2.846.528,4.753,4.753,0,0,1,1.763,1.147A4.746,4.746,0,0,1,27.28,6.289a8.474,8.474,0,0,1,.528,2.846c.074,1.616.089,2.1.089,6.194s-.015,4.578-.089,6.195Zm0,0" fill="url(#linear-gradient)"/>
    <path   d="M132.411,124.539a7.872,7.872,0,1,0,7.872,7.872A7.872,7.872,0,0,0,132.411,124.539Zm0,12.982a5.11,5.11,0,1,1,5.11-5.11A5.11,5.11,0,0,1,132.411,137.521Zm0,0" transform="translate(-117.082 -117.082)" fill="url(#linear-gradient-2)"/>
    <path  d="M365.609,90.465a1.84,1.84,0,1,1-1.839-1.84A1.84,1.84,0,0,1,365.609,90.465Zm0,0" transform="translate(-340.257 -83.318)" fill="url(#linear-gradient-3)"/>
  </g>
</svg>
