<svg id="logout" xmlns="http://www.w3.org/2000/svg" viewBox="0 0 21.154 21.154">
  <g stroke="none" id="logout" transform="translate(0 -0.85)">
    <g id="Group_6837" data-name="Group 6837" transform="translate(0 0.85)">
      <g id="Group_6836" data-name="Group 6836">
        <path fill="CurrentColor" id="Path_5680" data-name="Path 5680" d="M10.654,20.241H2.663a.885.885,0,0,1-.888-.881V3.494a.885.885,0,0,1,.888-.881h7.99a.881.881,0,1,0,0-1.763H2.663A2.657,2.657,0,0,0,0,3.494V19.36A2.657,2.657,0,0,0,2.663,22h7.99a.881.881,0,1,0,0-1.763Z" transform="translate(0 -0.85)"/>
      </g>
    </g>
    <g id="Group_6839" data-name="Group 6839" transform="translate(6.878 5.213)">
      <g id="Group_6838" data-name="Group 6838">
        <path fill="CurrentColor" id="Path_5681" data-name="Path 5681" d="M184.111,112.747l-5.4-5.327a.888.888,0,1,0-1.246,1.264l3.857,3.807H170.988a.888.888,0,0,0,0,1.776h10.337l-3.857,3.807a.888.888,0,1,0,1.246,1.264l5.4-5.327a.887.887,0,0,0,0-1.264Z" transform="translate(-170.1 -107.165)"/>
      </g>
    </g>
  </g>
</svg>
