<svg id="mail" xmlns="http://www.w3.org/2000/svg" viewBox="0 0 26.189 20">
  <path id="Path_2" data-name="Path 2" d="M25.166,72.316a1.023,1.023,0,0,0,1.023-1.023v-6.7A4.1,4.1,0,0,0,22.1,60.5H4.092A4.1,4.1,0,0,0,0,64.592V76.408A4.1,4.1,0,0,0,4.092,80.5H22.1a4.1,4.1,0,0,0,4.092-4.092,1.023,1.023,0,1,0-2.046,0A2.048,2.048,0,0,1,22.1,78.454H4.092a2.048,2.048,0,0,1-2.046-2.046v-11.6l8.888,5.527a4.067,4.067,0,0,0,4.322,0l8.888-5.527v6.484A1.023,1.023,0,0,0,25.166,72.316ZM14.175,68.6a2.033,2.033,0,0,1-2.161,0L2.9,62.93a2.035,2.035,0,0,1,1.192-.384H22.1a2.035,2.035,0,0,1,1.192.384Z" transform="translate(0 -60.5)"/>
</svg>
