<svg id="map" xmlns="http://www.w3.org/2000/svg" viewBox="0 0 27.56 27.549">
  <g id="Group_7150" data-name="Group 7150" transform="translate(-6.201 -3.209)">
    <path id="Path_5800" data-name="Path 5800" d="M55.9,25.583A3.337,3.337,0,1,0,52.56,28.92,3.337,3.337,0,0,0,55.9,25.583Zm-5.884,0A2.547,2.547,0,1,1,52.56,28.13a2.547,2.547,0,0,1-2.547-2.547Z" transform="translate(-32.579 -14.692)" fill="#fff" stroke="#fff" stroke-width="0.7"/>
    <path id="Path_5801" data-name="Path 5801" d="M31.379,30.872l-3.222-8.446a.4.4,0,0,0-.369-.254h-6.1l.112-.181c2.346-3.884,3.527-7.282,3.51-10.1a7.332,7.332,0,1,0-14.663,0c-.017,2.817,1.164,6.215,3.51,10.1.037.062.074.121.112.181h-6.1a.4.4,0,0,0-.369.254L4.582,30.872a.395.395,0,0,0,.369.536H31.01a.395.395,0,0,0,.369-.536ZM11.44,11.891a6.541,6.541,0,0,1,13.082,0c.034,5.615-5.215,12.539-6.541,14.2C16.654,24.431,11.406,17.509,11.44,11.891Zm6.24,15.081a.4.4,0,0,0,.6,0A41.942,41.942,0,0,0,21.2,22.961h6.321l.506,1.327L15.67,28.681l-4.4-5.72h3.5a41.942,41.942,0,0,0,2.914,4.011Zm-2.023,2.552h0l7.368-2.62,2.858,3.713h-13.3ZM8.445,22.961H10.27l4.617,6-4.662,1.658h-4.7Zm18.438,7.657L23.81,26.624l4.494-1.6,2.133,5.592Z" transform="translate(2 -1)" fill="#fff" stroke="#fff" stroke-width="0.7"/>
  </g>
</svg>
