<svg id="notification" xmlns="http://www.w3.org/2000/svg" viewBox="0 0 23.263 22.75">
  <path  fill="CurrentColor" id="Path_5911" data-name="Path 5911"
        d="M13.662,25.25a2.34,2.34,0,0,0,2.333-2.333H11.328A2.34,2.34,0,0,0,13.662,25.25Zm7-7V12.417c0-3.582-1.9-6.58-5.25-7.373V4.25a1.75,1.75,0,1,0-3.5,0v.793c-3.337.793-5.25,3.78-5.25,7.373V18.25L4.328,20.583V21.75H22.995V20.583Zm-2.333,1.167H8.995v-7c0-2.893,1.762-5.25,4.667-5.25s4.667,2.357,4.667,5.25ZM8.505,4.343,6.837,2.675A12.163,12.163,0,0,0,2.03,11.833H4.363A9.853,9.853,0,0,1,8.505,4.343Zm14.455,7.49h2.333a12.237,12.237,0,0,0-4.807-9.158L18.83,4.343A9.911,9.911,0,0,1,22.96,11.833Z"
        transform="translate(-2.03 -2.5)"/>
</svg>
