<svg id="personal-pic" data-name="Group 6785" xmlns="http://www.w3.org/2000/svg"
     viewBox="0 0 30.328 36.924">
    <path fill="CurrentColor" id="Path_5666" data-name="Path 5666"
          d="M36.608,36.879A6.729,6.729,0,0,1,32.268,31.9,15.609,15.609,0,0,0,37,24.539,6.144,6.144,0,0,0,38.5,20.985a2.044,2.044,0,0,0-.735-1.66C37.615,13.091,33.2,8.085,27.742,8.008c-.043,0-.085-.008-.127-.008-.017,0-.033,0-.05,0-5.425.03-9.833,4.931-10.1,11.084a2.059,2.059,0,0,0-1.072,1.9,6.753,6.753,0,0,0,2.048,4.191,15.586,15.586,0,0,0,4.231,6.491,6.694,6.694,0,0,1-4.382,5.212c-1.661.722-4.7,1.37-6.006,2.038,3.355,3.668,9.711,5.976,15.068,6l.076,0a.081.081,0,0,1,.019,0c5.4,0,11.788-2.315,15.164-6.006C41.3,38.249,38.268,37.6,36.608,36.879Z"
          transform="translate(-12.287 -8)" />
</svg>
