<svg id="phone" xmlns="http://www.w3.org/2000/svg" viewBox="0 0 20 20">
  <path id="Path_1" data-name="Path 1" d="M20,16.117a2.958,2.958,0,0,0-.907-2.033,7.266,7.266,0,0,0-2.877-1.911,3.22,3.22,0,0,0-3.306.938l0,0-1.056,1.048a15.829,15.829,0,0,1-3.331-2.576l-.1-.1a15.831,15.831,0,0,1-2.576-3.33L6.886,7.1l0,0a3.22,3.22,0,0,0,.938-3.306A7.267,7.267,0,0,0,5.918.911,2.973,2.973,0,0,0,1.792.762l-.022.02-.03.029A6.339,6.339,0,0,0,0,5.454c.016,3.212,1.781,6.885,4.722,9.825A19.041,19.041,0,0,0,6.6,16.911a.781.781,0,0,0,.951-1.24,17.494,17.494,0,0,1-1.719-1.5c-2.656-2.656-4.25-5.919-4.264-8.728A4.827,4.827,0,0,1,2.83,1.93l.006-.005A1.405,1.405,0,0,1,4.793,2c2.023,2.1,1.876,3.088.982,4L4.327,7.459a.781.781,0,0,0-.159.868A15.786,15.786,0,0,0,7.309,12.59l.1.1a15.784,15.784,0,0,0,4.263,3.141.781.781,0,0,0,.868-.159L14,14.226c.917-.894,1.907-1.04,4,.982a1.405,1.405,0,0,1,.071,1.957l-.006.006a4.812,4.812,0,0,1-3.481,1.267h-.036a10.13,10.13,0,0,1-3.855-.913.781.781,0,0,0-.619,1.435A11.525,11.525,0,0,0,14.548,20h.044a6.325,6.325,0,0,0,4.6-1.739l.029-.03.02-.023A2.958,2.958,0,0,0,20,16.117Z" transform="translate(0 -0.002)"/>
</svg>
