<svg id="phone2" xmlns="http://www.w3.org/2000/svg"  viewBox="0 0 25.5 25.5">
  <path d="M8.015,5.833A17.443,17.443,0,0,0,8.652,9.5l-1.7,1.7A21,21,0,0,1,5.876,5.833H8.015M21.983,22.862a18.066,18.066,0,0,0,3.683.638V25.61a21.854,21.854,0,0,1-5.383-1.062l1.7-1.686M9.375,3H4.417A1.421,1.421,0,0,0,3,4.417,24.081,24.081,0,0,0,27.083,28.5,1.421,1.421,0,0,0,28.5,27.083V22.139a1.421,1.421,0,0,0-1.417-1.417,16.16,16.16,0,0,1-5.057-.807,1.189,1.189,0,0,0-.439-.071,1.451,1.451,0,0,0-1.006.411l-3.117,3.117a21.461,21.461,0,0,1-9.336-9.336l3.117-3.117A1.422,1.422,0,0,0,11.6,9.474a16.094,16.094,0,0,1-.808-5.058A1.421,1.421,0,0,0,9.375,3Z" transform="translate(-3 -3)"/>
</svg>
