<svg id="pin" xmlns="http://www.w3.org/2000/svg" viewBox="0 0 16.015 20">
  <g id="pin" transform="translate(-51.003)" opacity="0.8">
    <g id="Group_4" data-name="Group 4" transform="translate(54.128 3.125)">
      <g id="Group_3" data-name="Group 3" transform="translate(0)">
        <path id="Path_3" data-name="Path 3" d="M135.883,80a4.883,4.883,0,1,0,1.339,9.579.781.781,0,1,0-.428-1.5,3.316,3.316,0,1,1,2.27-2.238.781.781,0,1,0,1.5.449A4.886,4.886,0,0,0,135.883,80Z" transform="translate(-131 -80)"/>
      </g>
    </g>
    <g id="Group_6" data-name="Group 6" transform="translate(51.003)">
      <g id="Group_5" data-name="Group 5" transform="translate(0)">
        <path id="Path_4" data-name="Path 4" d="M64.67,2.342A8.008,8.008,0,0,0,51,8a8.368,8.368,0,0,0,1.322,4.465,23.783,23.783,0,0,0,2.825,3.506,26.667,26.667,0,0,1,2.966,3.665.781.781,0,0,0,.66.364h.469a.781.781,0,0,0,.66-.364,26.667,26.667,0,0,1,2.966-3.665A23.779,23.779,0,0,0,65.7,12.466,8.368,8.368,0,0,0,67.018,8,7.956,7.956,0,0,0,64.67,2.342ZM61.717,14.918a32.2,32.2,0,0,0-2.706,3.244A32.193,32.193,0,0,0,56.3,14.918c-2-2.2-3.736-4.091-3.739-6.918a6.445,6.445,0,0,1,12.89,0C65.453,10.827,63.722,12.723,61.717,14.918Z" transform="translate(-51.003)"/>
      </g>
    </g>
  </g>
</svg>
