<svg id="pin3" xmlns="http://www.w3.org/2000/svg" viewBox="0 0 29 39">
  <g transform="translate(0)">
    <path d="M62.58,0a14.47,14.47,0,0,0-14.5,14.407,16.534,16.534,0,0,0,1.23,5.547,23.184,23.184,0,0,0,1.676,3.114l9.942,14.967a1.9,1.9,0,0,0,3.3,0l9.943-14.968a23.086,23.086,0,0,0,1.676-3.114,16.529,16.529,0,0,0,1.229-5.547A14.47,14.47,0,0,0,62.58,0Zm11.7,19.3a21.243,21.243,0,0,1-1.528,2.839L62.808,37.1c-.2.3-.258.3-.455,0L52.41,22.135a21.252,21.252,0,0,1-1.528-2.84,15.008,15.008,0,0,1-1.1-4.888,12.794,12.794,0,0,1,25.588,0A15.021,15.021,0,0,1,74.278,19.3Z" transform="translate(-48.08 0)"/>
    <path d="M119.828,64.008a7.6,7.6,0,1,0,7.748,7.6A7.682,7.682,0,0,0,119.828,64.008Zm0,13.5a5.909,5.909,0,1,1,6.026-5.908A5.975,5.975,0,0,1,119.828,77.512Z" transform="translate(-105.328 -57.21)"/>
  </g>
</svg>
