<svg xmlns="http://www.w3.org/2000/svg" width="23.023" height="22.75" viewBox="0 0 23.023 22.75">
  <path id="Path_5913" data-name="Path 5913" d="M20.645,18.25V12.417c0-3.582-1.913-6.58-5.25-7.373V4.25A1.758,1.758,0,0,0,13.634,2.5,1.738,1.738,0,0,0,11.9,4.25v.793c-3.348.793-5.25,3.78-5.25,7.373V18.25L5.129,19.755a1.167,1.167,0,0,0,.817,1.995H21.31a1.17,1.17,0,0,0,.828-1.995Zm-7.012,7a2.34,2.34,0,0,0,2.333-2.333H11.3A2.333,2.333,0,0,0,13.634,25.25ZM7.544,5.1a1.149,1.149,0,0,0,.035-1.668A1.166,1.166,0,0,0,5.957,3.41a12.161,12.161,0,0,0-3.815,7.07,1.179,1.179,0,0,0,1.167,1.353,1.163,1.163,0,0,0,1.143-.968A9.847,9.847,0,0,1,7.544,5.1Zm13.8-1.692a1.18,1.18,0,0,0-1.633.023,1.145,1.145,0,0,0,.035,1.657,9.911,9.911,0,0,1,3.092,5.763,1.145,1.145,0,0,0,1.143.968,1.171,1.171,0,0,0,1.155-1.353A12.236,12.236,0,0,0,21.345,3.41Z" transform="translate(-2.129 -2.5)"/>
</svg>
