<svg id="shop" xmlns="http://www.w3.org/2000/svg"  viewBox="0 0 21 20.259">
  <path d="M19.261,21.259H2.739A1.745,1.745,0,0,1,1,19.508L2.739,9A1.871,1.871,0,0,1,4.86,7.253H6.013C6.668,4.211,8.653,2,11,2s4.332,2.211,4.987,5.253H17.14A1.871,1.871,0,0,1,19.261,9L21,19.508A1.745,1.745,0,0,1,19.261,21.259ZM11,2.875c-1.892,0-3.5,1.829-4.095,4.377H15.1C14.5,4.7,12.893,2.875,11,2.875ZM18.391,9a.943.943,0,0,0-1.03-.875h-1.23c.053.427.086,2.068.086,2.517a.435.435,0,1,1-.87,0c0-.45-.03-2.093-.087-2.517H6.74c-.057.424-.087,2.067-.087,2.517a.435.435,0,1,1-.87,0c0-.449.033-2.09.086-2.517H4.639A.943.943,0,0,0,3.609,9L1.87,19.508a.873.873,0,0,0,.87.875H19.261a.873.873,0,0,0,.87-.875Z" transform="translate(-0.5 -1.5)" stroke="#fff" stroke-width="1" fill-rule="evenodd"/>
</svg>
