<svg xmlns="http://www.w3.org/2000/svg" width="409.157" height="298.341" viewBox="0 0 409.157 298.341">
  <g id="undraw_web_shopping_dd4l" opacity="0.5">
    <rect id="Rectangle_2407" data-name="Rectangle 2407" width="300.791" height="192.64" transform="translate(0.128 0.171)" fill="#e6e6e6"/>
    <rect id="Rectangle_2408" data-name="Rectangle 2408" width="283.589" height="157.081" transform="translate(8.729 24.332)" fill="#fff"/>
    <rect id="Rectangle_2409" data-name="Rectangle 2409" width="300.791" height="12.779" fill="#d19e66"/>
    <circle id="Ellipse_206" data-name="Ellipse 206" cx="2.368" cy="2.368" r="2.368" transform="translate(7.128 4.165)" fill="#fff"/>
    <circle id="Ellipse_207" data-name="Ellipse 207" cx="2.368" cy="2.368" r="2.368" transform="translate(16.118 4.165)" fill="#fff"/>
    <circle id="Ellipse_208" data-name="Ellipse 208" cx="2.368" cy="2.368" r="2.368" transform="translate(25.108 4.165)" fill="#fff"/>
    <rect id="Rectangle_2410" data-name="Rectangle 2410" width="55.466" height="60.175" transform="translate(43.622 37.252)" fill="#e6e6e6"/>
    <rect id="Rectangle_2411" data-name="Rectangle 2411" width="55.466" height="60.175" transform="translate(122.79 37.252)" fill="#e6e6e6"/>
    <rect id="Rectangle_2412" data-name="Rectangle 2412" width="55.466" height="60.175" transform="translate(201.959 37.252)" fill="#e6e6e6"/>
    <rect id="Rectangle_2413" data-name="Rectangle 2413" width="55.466" height="60.175" transform="translate(43.622 108.32)" fill="#e6e6e6"/>
    <rect id="Rectangle_2414" data-name="Rectangle 2414" width="55.466" height="60.175" transform="translate(122.79 108.32)" fill="#e6e6e6"/>
    <rect id="Rectangle_2415" data-name="Rectangle 2415" width="55.466" height="60.175" transform="translate(201.959 108.32)" fill="#e6e6e6"/>
    <path id="Path_5777" data-name="Path 5777" d="M531.419,561.913l-37.52,7.68-.855-.087-32.972-3.328V524.393l40.363-6.824,29.28,3.415.011.185v.087Z" transform="translate(-245.429 -276.102)" fill="#e6e6e6"/>
    <path id="Path_5778" data-name="Path 5778" d="M569.12,566.029l-37.52,7.68-.855-.088V530.786l36.681-5.5Z" transform="translate(-283.13 -280.218)" opacity="0.1"/>
    <path id="Path_5779" data-name="Path 5779" d="M529.725,521.256l-.011.011-36.671,5.4-32.972-2.277,40.363-6.824,29.28,3.415.011.185Z" transform="translate(-245.429 -276.102)" opacity="0.05"/>
    <rect id="Rectangle_2416" data-name="Rectangle 2416" width="22.861" height="10.73" transform="matrix(0.998, 0.065, -0.065, 0.998, 219.181, 262.876)" fill="#fff"/>
    <rect id="Rectangle_2417" data-name="Rectangle 2417" width="12.13" height="3.732" transform="matrix(0.998, 0.065, -0.065, 0.998, 224.307, 266.717)" fill="#d19e66"/>
    <path id="Path_5780" data-name="Path 5780" d="M640.419,561.913l-37.52,7.68-.855-.087-32.972-3.328V524.393l40.363-6.824,29.28,3.415.011.185v.087Z" transform="translate(-303.576 -276.102)" fill="#d19e66"/>
    <path id="Path_5781" data-name="Path 5781" d="M678.12,566.029l-37.52,7.68-.855-.088V530.786l36.681-5.5Z" transform="translate(-341.277 -280.218)" fill="#d19e66" opacity="0.1"/>
    <path id="Path_5782" data-name="Path 5782" d="M638.725,521.256l-.011.011-36.671,5.4-32.972-2.277,40.363-6.824,29.28,3.415.011.185Z" transform="translate(-303.576 -276.102)" opacity="0.05"/>
    <rect id="Rectangle_2418" data-name="Rectangle 2418" width="22.861" height="10.73" transform="matrix(0.998, 0.065, -0.065, 0.998, 270.035, 262.876)" fill="#fff"/>
    <rect id="Rectangle_2419" data-name="Rectangle 2419" width="12.13" height="3.732" transform="matrix(0.998, 0.065, -0.065, 0.998, 275.161, 266.717)" fill="#d19e66"/>
    <path id="Path_5783" data-name="Path 5783" d="M932.215,295.884s6.62,17.1-5.517,17.1,18.757,17.1,30.894,7.172,4.965-10.482,4.965-10.482-16,1.655-15.447-12.688Z" transform="translate(-568.222 -218.615)" fill="#ffb8b8"/>
    <circle id="Ellipse_209" data-name="Ellipse 209" cx="19.511" cy="19.511" r="19.511" transform="translate(353.106 43.396)" fill="#2f2e41"/>
    <path id="Path_5784" data-name="Path 5784" d="M902.084,448.422,881.12,502.485s-10.482,16.55-6.62,33.1,14.474,46.671,14.474,46.671,8.016,2.04,7.465-5.132.344-41.941-7.931-51.32l33.437-38.215,1.1,43.582s-2.207,19.86-1.655,28.687,1.655,23.722,1.655,23.722l6.62-1.1s8.93-40.633,7.827-53.873c0,0,20.5-64.332-.466-79.779Z" transform="translate(-541.4 -299.988)" fill="#2f2e41"/>
    <path id="Path_5785" data-name="Path 5785" d="M904.854,728.424s-2.7-.687-3.01,1.788-5.988,13.485-.061,14.036,7.978-4.994,8.971-8.893,1.369-4.122,2.2-4.869,2.8-4.839.326-5.15a5.479,5.479,0,0,1-3.745-2.746S908.753,729.417,904.854,728.424Z" transform="translate(-554.976 -446.245)" fill="#2f2e41"/>
    <path id="Path_5786" data-name="Path 5786" d="M983.194,730.616s-5.006-.715-4.648,1.073-.715,9.3,0,10.012,2.145,2.145,2.145,3.218.358,4.648,6.436,3.576,4.648-6.436,4.291-7.151-4.648-4.291-4.291-6.436S985.339,729.186,983.194,730.616Z" transform="translate(-597.226 -450.351)" fill="#2f2e41"/>
    <circle id="Ellipse_210" data-name="Ellipse 210" cx="13.514" cy="13.514" r="13.514" transform="translate(359.344 57.529)" fill="#ffb8b8"/>
    <path id="Path_5787" data-name="Path 5787" d="M945.222,321.927s4.714,9.326-9.494,9.59c-4.368.081-9.562-3.1-11.706-6.908-1.263-2.242-1.582.855-3.625.628-3.868-.43-8,1.175-11.7,3.141a2.333,2.333,0,0,0-1.14,2.737c2.8,9.3,10.813,54.063,12.049,56.5,3.157,6.223,37.323-4.2,37.323-4.2.468-16.933-5.678-40.622,5.132-57.851a20.591,20.591,0,0,0-16.841-3.638Z" transform="translate(-559.438 -232.245)" fill="#575a89"/>
    <path id="Path_5788" data-name="Path 5788" d="M796.093,124.072l-9.9-5.186-13.673,2.121L769.69,133.5l7.042-.271,1.967-4.59v4.515l3.25-.125,1.886-7.308,1.179,7.78,11.551-.236Z" transform="translate(-410.598 -63.421)" fill="#2f2e41"/>
    <circle id="Ellipse_211" data-name="Ellipse 211" cx="7.873" cy="7.873" r="7.873" transform="translate(365.771 32.785)" fill="#2f2e41"/>
    <path id="Path_5789" data-name="Path 5789" d="M938.372,203.271a7.874,7.874,0,0,1,6.674-7.782,7.873,7.873,0,1,0,0,15.564A7.875,7.875,0,0,1,938.372,203.271Z" transform="translate(-574.654 -165.01)" fill="#2f2e41"/>
    <path id="Path_5790" data-name="Path 5790" d="M795.419,432.913l-37.52,7.68-.855-.087-32.972-3.328V395.393l40.363-6.824,29.279,3.415.011.185v.087Z" transform="translate(-386.262 -207.285)" fill="#e6e6e6"/>
    <path id="Path_5791" data-name="Path 5791" d="M833.12,437.03l-37.52,7.68-.855-.087V401.786l36.681-5.5Z" transform="translate(-423.963 -211.402)" opacity="0.1"/>
    <path id="Path_5792" data-name="Path 5792" d="M793.725,392.256l-.011.011-36.67,5.4-32.972-2.277,40.363-6.824,29.279,3.415.011.185Z" transform="translate(-386.262 -207.285)" opacity="0.05"/>
    <rect id="Rectangle_2420" data-name="Rectangle 2420" width="22.861" height="10.73" transform="matrix(0.998, 0.065, -0.065, 0.998, 342.349, 202.693)" fill="#fff"/>
    <rect id="Rectangle_2421" data-name="Rectangle 2421" width="12.13" height="3.732" transform="matrix(0.998, 0.065, -0.065, 0.998, 347.475, 206.534)" fill="#d19e66"/>
    <path id="Path_5793" data-name="Path 5793" d="M902.626,510.457s-13.792,11.033-7.723,14.9,13.24-14.9,13.24-14.9Z" transform="translate(-551.917 -333.081)" fill="#ffb8b8"/>
    <path id="Path_5794" data-name="Path 5794" d="M904.743,335.182c-.714-.805-9.735,3.8-8.4,9.8l.629,41.585s-3.31,34.2,4.965,34.2,7.3,1.15,8.4-1.608,1.4-26.126,1.4-26.126Z" transform="translate(-553.438 -239.53)" fill="#575a89"/>
    <path id="Path_5795" data-name="Path 5795" d="M1005.95,502.457s7.172,18.757,13.24,14.895-7.723-14.895-7.723-14.895Z" transform="translate(-611.979 -328.813)" fill="#ffb8b8"/>
    <path id="Path_5796" data-name="Path 5796" d="M1004.165,385.5s-3.436,22.9-2.333,25.66.127,1.608,8.4,1.608,4.965-34.2,4.965-34.2l.63-41.585c1.338-6-7.684-10.6-8.4-9.8L999.5,354.242Z" transform="translate(-608.538 -235.262)" fill="#575a89"/>
  </g>
</svg>
