<svg id="smile" xmlns="http://www.w3.org/2000/svg" viewBox="0 0 70.004 70.022">
  <g id="group-2svg" transform="translate(0)">
    <path fill="CurrentColor" id="path-1_10_" d="M352.63,180.647a4.033,4.033,0,1,1-4.033-4.033A4.033,4.033,0,0,1,352.63,180.647Z" transform="translate(-302.052 -154.819)"/>
    <path fill="CurrentColor" id="path-2_10_" d="M164.711,180.647a4.033,4.033,0,1,1-4.033-4.033A4.034,4.034,0,0,1,164.711,180.647Z" transform="translate(-137.323 -154.819)"/>
    <path fill="CurrentColor" id="path-3_10_" d="M177.527,349.358h-5.6a12.8,12.8,0,0,1-12.865-12.712,1.662,1.662,0,0,1,3.324,0,9.365,9.365,0,0,0,9.541,9.388h5.6a9.291,9.291,0,0,0,9.541-9.233,1.662,1.662,0,0,1,3.324,0A12.579,12.579,0,0,1,177.527,349.358Z" transform="translate(-139.441 -293.646)"/>
    <path fill="CurrentColor" id="path-4_10_" d="M35.074,70.022a35.011,35.011,0,1,1,35-35.011A35.046,35.046,0,0,1,35.074,70.022Zm0-66.7A31.686,31.686,0,1,0,66.752,35.01,31.717,31.717,0,0,0,35.074,3.325Z" transform="translate(-0.072)"/>
  </g>
</svg>
