<svg id="social-phone" xmlns="http://www.w3.org/2000/svg"  viewBox="0 0 27.75 27.75">
  <path id="Path_5803" data-name="Path 5803" d="M8.457,6.083a18.982,18.982,0,0,0,.694,3.993L7.3,11.926A22.856,22.856,0,0,1,6.13,6.083H8.457m15.2,18.531a19.66,19.66,0,0,0,4.008.694v2.3a23.783,23.783,0,0,1-5.858-1.156l1.85-1.835M9.938,3h-5.4A1.546,1.546,0,0,0,3,4.542,26.206,26.206,0,0,0,29.208,30.75a1.546,1.546,0,0,0,1.542-1.542v-5.38a1.546,1.546,0,0,0-1.542-1.542,17.586,17.586,0,0,1-5.5-.879,1.294,1.294,0,0,0-.478-.077,1.579,1.579,0,0,0-1.095.447L18.74,25.169A23.354,23.354,0,0,1,8.581,15.01l3.392-3.392a1.547,1.547,0,0,0,.385-1.573,17.514,17.514,0,0,1-.879-5.5A1.546,1.546,0,0,0,9.938,3Z" transform="translate(-3 -3)" fill="#d19e66"/>
</svg>
