<svg id="support" xmlns="http://www.w3.org/2000/svg" viewBox="0 0 62.999 71.157">
  <g id="Group_6815" data-name="Group 6815" transform="translate(0.5 0.5)">
    <path fill="CurrentColor" id="Path_5673" data-name="Path 5673" d="M62,0A30.951,30.951,0,0,0,31,30.831V47.548a6.19,6.19,0,0,0,6.2,6.166h2.422a6.2,6.2,0,0,0,12.044-2.055V34.941a6.2,6.2,0,0,0-12.044-2.055H37.2a6.2,6.2,0,0,0-2.067.354V30.831a26.867,26.867,0,0,1,53.733,0V33.24a6.2,6.2,0,0,0-2.067-.354H84.377a6.2,6.2,0,0,0-12.044,2.055V51.659a6.2,6.2,0,0,0,8,5.9A6.206,6.206,0,0,1,74.4,61.935H67.844a6.166,6.166,0,1,0,0,4.111H74.4A10.317,10.317,0,0,0,84.733,55.769V53.714H86.8A6.19,6.19,0,0,0,93,47.548V30.831A30.951,30.951,0,0,0,62,0ZM43.4,34.941a2.067,2.067,0,0,1,4.133,0V51.659a2.067,2.067,0,0,1-4.133,0ZM37.2,37h2.067V49.6H37.2a2.063,2.063,0,0,1-2.067-2.055v-8.5A2.063,2.063,0,0,1,37.2,37ZM62,66.046a2.055,2.055,0,1,1,2.067-2.055A2.063,2.063,0,0,1,62,66.046ZM80.6,51.659a2.067,2.067,0,0,1-4.133,0V34.941a2.067,2.067,0,0,1,4.133,0Zm8.267-4.111A2.063,2.063,0,0,1,86.8,49.6H84.733V37H86.8a2.063,2.063,0,0,1,2.067,2.055Z" transform="translate(-31)" stroke="#fff" stroke-width="1"/>
  </g>
</svg>
