<svg id="trash" xmlns="http://www.w3.org/2000/svg" viewBox="0 0 21.667 26">
  <g id="Group_7150" data-name="Group 7150" transform="translate(-73 -172)">
    <path fill="CurrentColor" id="Path_5535" data-name="Path 5535" d="M12.054,7.971a.6.6,0,0,0-.6.6V19.832a.6.6,0,1,0,1.192,0V8.567A.6.6,0,0,0,12.054,7.971Zm0,0" transform="translate(75.476 173.8)"/>
    <path fill="CurrentColor" id="Path_5536" data-name="Path 5536" d="M5.975,7.971a.6.6,0,0,0-.6.6V19.832a.6.6,0,1,0,1.192,0V8.567A.6.6,0,0,0,5.975,7.971Zm0,0" transform="translate(74.162 173.8)"/>
    <path fill="CurrentColor" id="Path_5537" data-name="Path 5537" d="M1.774,7.74v15a3.313,3.313,0,0,0,.916,2.317A3.115,3.115,0,0,0,4.923,26H16.743a3.114,3.114,0,0,0,2.232-.941,3.313,3.313,0,0,0,.916-2.317v-15a2.328,2.328,0,0,0,1.754-2.549A2.367,2.367,0,0,0,19.28,3.166h-3.2V2.405A2.362,2.362,0,0,0,15.36.7,2.488,2.488,0,0,0,13.607,0H8.059A2.488,2.488,0,0,0,6.306.7a2.362,2.362,0,0,0-.721,1.707v.761h-3.2A2.367,2.367,0,0,0,.02,5.191,2.328,2.328,0,0,0,1.774,7.74ZM16.743,24.782H4.923a1.949,1.949,0,0,1-1.9-2.04V7.794H18.643V22.742a1.949,1.949,0,0,1-1.9,2.04ZM6.835,2.405a1.157,1.157,0,0,1,.355-.846,1.22,1.22,0,0,1,.87-.341h5.548a1.22,1.22,0,0,1,.87.341,1.157,1.157,0,0,1,.355.846v.761h-8ZM2.387,4.384H19.28a1.1,1.1,0,1,1,0,2.192H2.387a1.1,1.1,0,1,1,0-2.192Zm0,0" transform="translate(73 172)"/>
    <path fill="CurrentColor" id="Path_5538" data-name="Path 5538" d="M9.015,7.971a.6.6,0,0,0-.6.6V19.832a.6.6,0,0,0,1.192,0V8.567A.6.6,0,0,0,9.015,7.971Zm0,0" transform="translate(74.818 173.8)"/>
  </g>
</svg>
