<svg id="union" xmlns="http://www.w3.org/2000/svg" viewBox="0 0 19.998 20.001">
  <g id="Union_77" data-name="Union 77" transform="translate(14073 11885)" fill="none">
    <path d="M-14061.231-11865a1,1,0,0,1-1-1v-10.821a1,1,0,0,1,1-1h7.229a1,1,0,0,1,1,1V-11866a1,1,0,0,1-1,1Zm-10.769,0a1,1,0,0,1-1-1v-3.638a1,1,0,0,1,1-1h7.229a1,1,0,0,1,1,1v3.638a1,1,0,0,1-1,1Zm0-7.177a1,1,0,0,1-1-1V-11884a1,1,0,0,1,1-1h7.229a1,1,0,0,1,1,1v10.822a1,1,0,0,1-1,1Zm10.769-7.18a1,1,0,0,1-1-1V-11884a1,1,0,0,1,1-1h7.229a1,1,0,0,1,1,1v3.642a1,1,0,0,1-1,1Z" stroke="none"/>
    <path fill="CurrentColor" d="M -14054.501953125 -11866.4990234375 L -14054.501953125 -11876.3193359375 L -14060.7314453125 -11876.3193359375 L -14060.7314453125 -11866.4990234375 L -14054.501953125 -11866.4990234375 M -14065.271484375 -11866.5029296875 L -14065.271484375 -11869.1435546875 L -14071.5 -11869.1435546875 L -14071.5 -11866.5029296875 L -14065.271484375 -11866.5029296875 M -14065.271484375 -11873.6796875 L -14065.271484375 -11883.5 L -14071.5 -11883.5 L -14071.5 -11873.6796875 L -14065.271484375 -11873.6796875 M -14054.501953125 -11880.859375 L -14054.501953125 -11883.5 L -14060.7314453125 -11883.5 L -14060.7314453125 -11880.859375 L -14054.501953125 -11880.859375 M -14054.001953125 -11864.9990234375 L -14061.2314453125 -11864.9990234375 C -14061.7822265625 -11864.9990234375 -14062.2314453125 -11865.447265625 -14062.2314453125 -11865.9990234375 L -14062.2314453125 -11876.8203125 C -14062.2314453125 -11877.375 -14061.7822265625 -11877.8193359375 -14061.2314453125 -11877.8193359375 L -14054.001953125 -11877.8193359375 C -14053.447265625 -11877.8193359375 -14053.001953125 -11877.375 -14053.001953125 -11876.8203125 L -14053.001953125 -11865.9990234375 C -14053.001953125 -11865.447265625 -14053.447265625 -11864.9990234375 -14054.001953125 -11864.9990234375 Z M -14064.7705078125 -11865.0029296875 L -14072 -11865.0029296875 C -14072.55078125 -11865.0029296875 -14073 -11865.447265625 -14073 -11866.001953125 L -14073 -11869.6396484375 C -14073 -11870.1943359375 -14072.55078125 -11870.6435546875 -14072 -11870.6435546875 L -14064.7705078125 -11870.6435546875 C -14064.2158203125 -11870.6435546875 -14063.771484375 -11870.1943359375 -14063.771484375 -11869.6396484375 L -14063.771484375 -11866.001953125 C -14063.771484375 -11865.447265625 -14064.2158203125 -11865.0029296875 -14064.7705078125 -11865.0029296875 Z M -14064.7705078125 -11872.1796875 L -14072 -11872.1796875 C -14072.55078125 -11872.1796875 -14073 -11872.6279296875 -14073 -11873.1787109375 L -14073 -11884.0009765625 C -14073 -11884.5517578125 -14072.55078125 -11885 -14072 -11885 L -14064.7705078125 -11885 C -14064.2158203125 -11885 -14063.771484375 -11884.5517578125 -14063.771484375 -11884.0009765625 L -14063.771484375 -11873.1787109375 C -14063.771484375 -11872.6279296875 -14064.2158203125 -11872.1796875 -14064.7705078125 -11872.1796875 Z M -14054.001953125 -11879.359375 L -14061.2314453125 -11879.359375 C -14061.7822265625 -11879.359375 -14062.2314453125 -11879.80859375 -14062.2314453125 -11880.359375 L -14062.2314453125 -11884.0009765625 C -14062.2314453125 -11884.5517578125 -14061.7822265625 -11885 -14061.2314453125 -11885 L -14054.001953125 -11885 C -14053.447265625 -11885 -14053.001953125 -11884.5517578125 -14053.001953125 -11884.0009765625 L -14053.001953125 -11880.359375 C -14053.001953125 -11879.80859375 -14053.447265625 -11879.359375 -14054.001953125 -11879.359375 Z" stroke="none"/>
  </g>
</svg>
