<svg id="verify" xmlns="http://www.w3.org/2000/svg" viewBox="0 0 24 24">
    <g id="Group_7084" data-name="Group 7084">
        <rect id="Rectangle_2468" data-name="Rectangle 2468" width="24" height="24" fill="none"/>
    </g>
    <g id="Group_7085" data-name="Group 7085" transform="translate(1.322 1.769)">
        <path id="Path_5815" data-name="Path 5815"
              d="M22.42,11.34,20.56,9.21l.26-2.82a1,1,0,0,0-.77-1.07L17.29,4.7,15.85,2.26a1.006,1.006,0,0,0-1.26-.41L12,2.96,9.41,1.85a.993.993,0,0,0-1.25.41L6.71,4.69l-2.75.62a.992.992,0,0,0-.78,1.06L3.44,9.2,1.57,11.34a1,1,0,0,0,0,1.32l1.87,2.13-.26,2.83a1,1,0,0,0,.77,1.07l2.76.63,1.44,2.43a1.009,1.009,0,0,0,1.26.41L12,21.03l2.59,1.11a.993.993,0,0,0,1.25-.41l1.44-2.43,2.76-.63a1,1,0,0,0,.77-1.07l-.26-2.82,1.86-2.13A.979.979,0,0,0,22.42,11.34ZM10.23,14.83,8.11,12.71a1,1,0,0,1,0-1.41h0a1,1,0,0,1,1.41,0l1.41,1.41,3.54-3.54a1,1,0,0,1,1.41,0h0a1,1,0,0,1,0,1.41l-4.24,4.24A.987.987,0,0,1,10.23,14.83Z"
              transform="translate(-1.322 -1.769)" fill="#20d29b"/>
    </g>
</svg>
