<svg id="warranty" xmlns="http://www.w3.org/2000/svg" viewBox="0 0 61.157 71.223">
  <g id="Group_7151" data-name="Group 7151" transform="translate(-0.538 0.723)">
    <path fill="CurrentColor" id="Path_5674" data-name="Path 5674" d="M60.163,18.992l0-.054c-.031-.672-.051-1.384-.064-2.175a7.454,7.454,0,0,0-7.059-7.268c-8.132-.449-14.424-3.073-19.8-8.259l-.046-.043a4.562,4.562,0,0,0-6.152,0L27,1.235C21.62,6.421,15.329,9.045,7.2,9.495A7.454,7.454,0,0,0,.138,16.763c-.012.786-.033,1.5-.064,2.175l0,.126c-.158,8.207-.355,18.421,3.1,27.691a35.212,35.212,0,0,0,8.545,13.173,44.8,44.8,0,0,0,16.723,9.789,5.221,5.221,0,0,0,.685.185,5.113,5.113,0,0,0,1.99,0,5.237,5.237,0,0,0,.688-.186,44.827,44.827,0,0,0,16.7-9.794A35.261,35.261,0,0,0,57.05,46.746C60.516,37.447,60.32,27.214,60.163,18.992ZM53.156,45.324C49.515,55.1,42.081,61.806,30.431,65.838a1.05,1.05,0,0,1-.132.035.94.94,0,0,1-.365,0,1.043,1.043,0,0,1-.131-.035c-11.663-4.025-19.1-10.731-22.74-20.5-3.182-8.545-3-17.921-2.843-26.193V19.1c.032-.711.054-1.455.066-2.273A3.313,3.313,0,0,1,7.428,13.6a36.738,36.738,0,0,0,12.36-2.691,32.361,32.361,0,0,0,10.073-6.7.386.386,0,0,1,.514,0,32.373,32.373,0,0,0,10.072,6.7A36.74,36.74,0,0,0,52.807,13.6a3.312,3.312,0,0,1,3.14,3.228c.012.822.034,1.567.066,2.273C56.172,27.378,56.348,36.761,53.156,45.324Zm0,0" transform="translate(1 0.001)"  stroke="#fff" stroke-width="1"/>
    <path fill="CurrentColor" id="Path_5675" data-name="Path 5675" d="M108.176,128.41a17.42,17.42,0,1,0,17.778,17.416A17.619,17.619,0,0,0,108.176,128.41Zm0,30.731a13.318,13.318,0,1,1,13.591-13.315A13.471,13.471,0,0,1,108.176,159.141Zm0,0" transform="translate(-77.06 -110.825)"  stroke="#fff" stroke-width="1"/>
    <path fill="CurrentColor" id="Path_5676" data-name="Path 5676" d="M167.458,212.592l-8.089,8.089-2.2-2.2a2.05,2.05,0,1,0-2.9,2.9l3.646,3.646a2.05,2.05,0,0,0,2.9,0l9.539-9.539a2.05,2.05,0,0,0-2.9-2.9Zm0,0" transform="translate(-131.339 -182.996)"  stroke="#fff" stroke-width="1"/>
  </g>
</svg>
