<svg id="whatsapp" xmlns="http://www.w3.org/2000/svg" viewBox="0 0 24.465 24.664">
    <g id="Group_7152" data-name="Group 7152" transform="translate(0 0)">
        <path fill="CurrentColor" id="Path_5807" data-name="Path 5807"
        d="M13.325.014a12.237,12.237,0,0,0-10.3,17.774l-1.3,6.3a.476.476,0,0,0,.576.559l6.177-1.464A12.234,12.234,0,1,0,13.325.014ZM20.7,19.006A9.584,9.584,0,0,1,9.66,20.812l-.86-.429-3.787.9.8-3.87-.424-.83A9.587,9.587,0,0,1,7.15,5.46,9.578,9.578,0,1,1,20.7,19.006Z"
        transform="translate(-1.69)"/>
        <path fill="CurrentColor" id="Path_5808" data-name="Path 5808"
        d="M116.681,115.966l-2.369-.68a.883.883,0,0,0-.874.23l-.579.59a.863.863,0,0,1-.938.2,12.649,12.649,0,0,1-4.081-3.6.863.863,0,0,1,.068-.957l.506-.654a.883.883,0,0,0,.109-.9l-1-2.255a.884.884,0,0,0-1.38-.316,3.985,3.985,0,0,0-1.541,2.351c-.168,1.66.544,3.753,3.236,6.266,3.11,2.9,5.6,3.287,7.223,2.894a3.985,3.985,0,0,0,2.119-1.847A.884.884,0,0,0,116.681,115.966Z"
        transform="translate(-98.512 -101.081)"/>
    </g>
</svg>
