<svg id="whatsapp-social" xmlns="http://www.w3.org/2000/svg" viewBox="0 0 29.729 29.971">
  <g id="whatsapp_3_" data-name="whatsapp (3)" transform="translate(-1.69 0)">
    <path id="Path_5807" data-name="Path 5807" d="M15.828.018a14.87,14.87,0,0,0-12.52,21.6L1.73,29.276a.579.579,0,0,0,.7.68l7.506-1.778A14.866,14.866,0,1,0,15.828.018Zm8.957,23.077a11.646,11.646,0,0,1-13.41,2.2l-1.045-.521-4.6,1.09.969-4.7-.515-1.009A11.649,11.649,0,0,1,8.325,6.635a11.639,11.639,0,1,1,16.46,16.46Z" transform="translate(0 0)" fill="#7ad06d"/>
    <path id="Path_5808" data-name="Path 5808" d="M119.284,117.806l-2.879-.827a1.073,1.073,0,0,0-1.062.28l-.7.717a1.049,1.049,0,0,1-1.14.241,15.37,15.37,0,0,1-4.959-4.373,1.049,1.049,0,0,1,.083-1.162l.615-.8a1.073,1.073,0,0,0,.132-1.09l-1.211-2.74a1.074,1.074,0,0,0-1.677-.384,4.843,4.843,0,0,0-1.873,2.857c-.2,2.017.661,4.56,3.932,7.614,3.78,3.528,6.806,3.994,8.777,3.516a4.842,4.842,0,0,0,2.575-2.245A1.074,1.074,0,0,0,119.284,117.806Z" transform="translate(-95.515 -99.717)" fill="#7ad06d"/>
  </g>
</svg>
