<svg xmlns="http://www.w3.org/2000/svg" xmlns:xlink="http://www.w3.org/1999/xlink" width="515.177" height="419.18" viewBox="0 0 515.177 419.18">
  <defs>
    <filter id="Union_5" x="0" y="0" width="515.177" height="419.18" filterUnits="userSpaceOnUse">
      <feOffset dy="3" input="SourceAlpha"/>
      <feGaussianBlur stdDeviation="14.5" result="blur"/>
      <feFlood flood-opacity="0.161"/>
      <feComposite operator="in" in2="blur"/>
      <feComposite in="SourceGraphic"/>
    </filter>
    <filter id="Union_6" x="11" y="9" width="493.009" height="401.921" filterUnits="userSpaceOnUse">
      <feOffset dy="3" input="SourceAlpha"/>
      <feGaussianBlur stdDeviation="14.5" result="blur-2"/>
      <feFlood flood-opacity="0.161"/>
      <feComposite operator="in" in2="blur-2"/>
      <feComposite in="SourceGraphic"/>
    </filter>
  </defs>
  <g id="Group_34" data-name="Group 34" transform="translate(-727.5 63.5)">
    <g transform="matrix(1, 0, 0, 1, 727.5, -63.5)" filter="url(#Union_5)">
      <path id="Union_5-2" data-name="Union 5" d="M241.515,328.167,47.877,182.619c-.256-.192-.5-.387-.747-.587a19.972,19.972,0,0,1-8.1-16.075V20a20,20,0,0,1,20-20h388a20,20,0,0,1,20,20V164.159a19.5,19.5,0,0,1-7.845,18.46L265.549,328.167a20,20,0,0,1-24.035,0Z" transform="translate(4.47 40.5)" fill="#fff"/>
    </g>
    <text id="ASHKAN" transform="translate(825 98)" fill="#201f21" font-size="50" font-family="Cinzel-Regular, Cinzel" letter-spacing="0.442em"><tspan x="0" y="0">ASHKAN</tspan></text>
    <text id="EMAMI" transform="translate(859 173)" fill="#201f21" font-size="50" font-family="Cinzel-Regular, Cinzel" letter-spacing="0.386em"><tspan x="0" y="0">EMAMI</tspan></text>
    <g transform="matrix(1, 0, 0, 1, 727.5, -63.5)" filter="url(#Union_6)">
      <g id="Union_6-2" data-name="Union 6" transform="translate(15.47 49.5)" fill="none">
        <path d="M230.493,310.907,49.871,175.113a21.2,21.2,0,0,1-3.186-2.938,19.966,19.966,0,0,1-7.653-15.735V20a20,20,0,0,1,20-20H425.041a20,20,0,0,1,20,20V156.441a19.914,19.914,0,0,1-4.4,12.519,20.29,20.29,0,0,1-5.488,6.153L254.53,310.907a20,20,0,0,1-24.037,0Z" stroke="none"/>
        <path d="M 242.5109558105469 310.9210205078125 C 246.0068969726562 310.9210205078125 249.331787109375 309.8105163574219 252.1261749267578 307.7095642089844 L 432.7473449707031 171.9156799316406 C 434.6036071777344 170.5202331542969 436.09033203125 168.8579559326172 437.1662292480469 166.9751281738281 L 437.3231811523438 166.7003936767578 L 437.5213928222656 166.4537811279297 C 438.6388244628906 165.0633392333984 439.5090026855469 163.5117340087891 440.107666015625 161.8420715332031 C 440.7269897460938 160.1147308349609 441.041015625 158.2974548339844 441.041015625 156.440673828125 L 441.041015625 19.99978828430176 C 441.041015625 15.72606563568115 439.3767395019531 11.70812129974365 436.3548278808594 8.686177253723145 C 433.3328857421875 5.66428804397583 429.31494140625 4.00001049041748 425.0412292480469 4.00001049041748 L 59.03189468383789 4.00001049041748 C 54.75817108154297 4.00001049041748 50.74022674560547 5.66428804397583 47.71828079223633 8.686177253723145 C 44.69639205932617 11.70812129974365 43.0321159362793 15.72606563568115 43.0321159362793 19.99978828430176 L 43.0321159362793 156.440673828125 C 43.0321159362793 158.9397888183594 43.59100341796875 161.3315124511719 44.69317245483398 163.5493927001953 C 45.74594879150391 165.6677398681641 47.28922653198242 167.5629577636719 49.15628051757812 169.0301818847656 L 49.44495010375977 169.2570037841797 L 49.68750381469727 169.5326232910156 C 50.4438362121582 170.3920135498047 51.31422805786133 171.19384765625 52.27455902099609 171.9157867431641 L 232.8966674804688 307.7097473144531 C 235.6905670166016 309.8105773925781 239.0151214599609 310.9210205078125 242.5109558105469 310.9210205078125 M 242.5109558105469 314.9210205078125 C 238.2813415527344 314.9210205078125 234.0517883300781 313.5829467773438 230.4927215576172 310.9067993164062 L 49.8708381652832 175.1130065917969 C 48.66572570800781 174.2070159912109 47.60606002807617 173.2221221923828 46.68472671508789 172.1752319335938 C 42.02533721923828 168.5136260986328 39.0321159362793 162.8265075683594 39.0321159362793 156.440673828125 L 39.0321159362793 19.99978828430176 C 39.0321159362793 8.954121589660645 47.98622512817383 1.025390611175681e-05 59.03189468383789 1.025390611175681e-05 L 425.0412292480469 1.025390611175681e-05 C 436.0868835449219 1.025390611175681e-05 445.041015625 8.954121589660645 445.041015625 19.99978828430176 L 445.041015625 156.440673828125 C 445.041015625 161.1795043945312 443.3934631347656 165.5326232910156 440.6392211914062 168.9595642089844 C 439.3431091308594 171.2279052734375 437.5293273925781 173.3250122070312 435.15087890625 175.1130065917969 L 254.5298919677734 310.9067993164062 C 250.9703979492188 313.5829467773438 246.7406158447266 314.9210205078125 242.5109558105469 314.9210205078125 Z" stroke="none" fill="#701b27"/>
      </g>
    </g>
  </g>
</svg>
